<?xml version="1.0" encoding="UTF-8"?><svg id="Layer_1" xmlns="http://www.w3.org/2000/svg" viewBox="0 0 600 600"><defs><style>.cls-1{fill:#fff;}</style></defs><g><polygon class="cls-1" points="191.78 188.78 191.78 136.89 300.02 28.59 408.22 136.91 408.22 189.04 300 80.5 191.78 188.78"/><polygon class="cls-1" points="220.21 217.3 300 137.42 325.91 163.38 272.06 217.38 300 245.28 300 297.14 273.67 270.78 220.21 217.3"/></g><g><path class="cls-1" d="M7.97,492.5v-108.37h126.18v21.26H32.13v19.32h100.52v20.98H32.13v46.81H7.97Z"/><path class="cls-1" d="M269.16,492.5l-11.05-17.29h-85.48l-11.03,17.29h-28.18l69.97-108.37h23.78l70.11,108.37h-28.12Zm-53.75-83.96l-29.5,45.87h58.84l-29.35-45.87Z"/><path class="cls-1" d="M422.1,492.5l-18.9-28.03h-67.12v28.03h-24.1v-108.37h107.02c7.57,0,24.77,2.93,24.77,31.06v13.22c0,25.61-5.7,29.08-15.67,34.44l19.69,29.65h-25.68Zm-9.69-87.23h-76.33v37.87h76.33c3.91,0,7.07-3.17,7.07-7.07v-23.72c0-3.91-3.17-7.07-7.07-7.07Z"/><path class="cls-1" d="M464.97,492.5v-108.37h127.07v21.14h-102.83v22.62h102.83v20.85h-102.83v22.61h102.83v21.15h-127.07Z"/></g><g><path class="cls-1" d="M272.36,571.41v-19.32h-12.54v-5.07h30.44v5.07h-12.69v19.32h-5.21Z"/><path class="cls-1" d="M464.92,571.41v-24.39h5.43v19.34h21.92v5.05h-27.35Z"/><path class="cls-1" d="M182.61,571.41l-4.25-6.31h-14.72v6.31h-5.42v-24.39h23.7c1.7,0,5.57,.66,5.57,6.99v2.98c0,5.76-1.28,6.54-3.53,7.75l4.43,6.67h-5.78Zm-2.18-19.63h-16.79v8.52h16.79c.88,0,1.59-.71,1.59-1.59v-5.34c0-.88-.71-1.59-1.59-1.59Z"/><path class="cls-1" d="M130.77,547.22h-23.04v24.19h5.33v-4.9h17.71c3.86,0,6.16-1.59,6.16-6.63v-6.34c0-4.73-2.3-6.33-6.16-6.33Zm-.62,14.58c-.35,.05-.72,.07-1.07,.07-5.1,0-10.2,0-15.29,.02-.55,0-.72-.13-.72-.7,.03-2.83,.03-5.67,0-8.5,0-.64,.21-.78,.8-.77,2.6,.03,12.84,0,15.36,.02,.36,0,.72,.03,1.07,.1,.78,.16,1.25,.66,1.26,1.45,.03,2.26,.03,4.53,0,6.79-.01,.88-.53,1.4-1.4,1.53Z"/><path class="cls-1" d="M234,547.05h-19.93c-3.03,0-5.49,2.46-5.49,5.49v13.39c0,3.03,2.46,5.49,5.49,5.49h19.93c3.03,0,5.49-2.46,5.49-5.49v-13.39c0-3.03-2.46-5.49-5.49-5.49Zm.21,17.66c0,1.12-.91,2.02-2.02,2.02h-16.3c-1.12,0-2.02-.91-2.02-2.02v-10.95c0-1.12,.91-2.02,2.02-2.02h16.3c1.12,0,2.02,.91,2.02,2.02v10.95Z"/><path class="cls-1" d="M336.01,547.05h-19.93c-3.03,0-5.49,2.46-5.49,5.49v13.39c0,3.03,2.46,5.49,5.49,5.49h19.93c3.03,0,5.49-2.46,5.49-5.49v-13.39c0-3.03-2.46-5.49-5.49-5.49Zm.21,17.66c0,1.12-.91,2.02-2.02,2.02h-16.3c-1.12,0-2.02-.91-2.02-2.02v-10.95c0-1.12,.91-2.02,2.02-2.02h16.3c1.12,0,2.02,.91,2.02,2.02v10.95Z"/><path class="cls-1" d="M438.07,547.05h-19.93c-3.03,0-5.49,2.46-5.49,5.49v13.39c0,3.03,2.46,5.49,5.49,5.49h19.93c3.03,0,5.49-2.46,5.49-5.49v-13.39c0-3.03-2.46-5.49-5.49-5.49Zm.21,17.66c0,1.12-.91,2.02-2.02,2.02h-16.3c-1.12,0-2.02-.91-2.02-2.02v-10.95c0-1.12,.91-2.02,2.02-2.02h16.3c1.12,0,2.02,.91,2.02,2.02v10.95Z"/><path class="cls-1" d="M387.23,563.37v1.34c0,1.12-.91,2.02-2.02,2.02h-16.3c-1.12,0-2.02-.91-2.02-2.02v-10.95c0-1.12,.91-2.02,2.02-2.02h16.3c1.12,0,2.02,.91,2.02,2.02v2.13h5.28v-3.35c0-3.03-2.46-5.49-5.49-5.49h-19.93c-3.03,0-5.49,2.46-5.49,5.49v13.39c0,3.03,2.46,5.49,5.49,5.49h19.93c3.03,0,5.49-2.46,5.49-5.49v-2.56h-5.28Z"/></g></svg>

