<?xml version="1.0" encoding="UTF-8"?><svg id="Layer_1" xmlns="http://www.w3.org/2000/svg" viewBox="0 0 60 60"><defs><style>.cls-1{fill:#fff;}.cls-2{fill:#f05d80;}.cls-3{fill:#181818;}.cls-4{fill:#2ecdc9;}</style></defs><circle class="cls-2" cx="27.88" cy="32.12" r="25.38"/><circle class="cls-4" cx="32.12" cy="27.88" r="25.38"/><circle class="cls-1" cx="30.71" cy="30.71" r="25.38"/><g><polygon class="cls-3" points="34.54 21.37 34.51 21.39 34.57 21.37 34.54 21.37"/><path class="cls-3" d="M34.5,21.4l-.34,.34c3.89,1.11,5.78,2.84,5.78,2.84-5.65-2.78-11.75-2.94-17.34-.74-.88,.38-1.38,.62-1.38,.62,0,0,1.88-1.85,6.03-2.84l-.25-.25s-3.14-.12-6.53,2.35h0s-3.39,5.82-3.39,12.99c0,0,1.88,3.22,7.03,3.34,0,0,.75-.99,1.51-1.85-2.89-.87-4.02-2.6-4.02-2.6l.97,.49c2.83,1.15,5.83,2.6,11.16,1.73,1.13-.25,2.25-.49,3.38-.99,.73-.37,1.64-.74,2.62-1.36,0,0-1.13,1.73-4.14,2.6,.62,.86,1.49,1.85,1.49,1.85,5.16-.11,7.16-3.33,7.27-3.19,0-7.16-3.41-12.99-3.41-12.99-3.05-2.23-5.9-2.33-6.44-2.33Zm-8.14,13.08c-1.32,0-2.39-1.11-2.39-2.47s1.07-2.48,2.39-2.48h0c1.32,0,2.38,1.1,2.38,2.46s-1.07,2.48-2.39,2.48Zm8.54,0c-1.32,0-2.39-1.11-2.39-2.47,0-1.37,1.08-2.48,2.39-2.48h0c1.32,0,2.39,1.1,2.39,2.46s-1.07,2.48-2.39,2.48Z"/></g></svg>