<?xml version="1.0" encoding="UTF-8"?><svg id="Layer_1" xmlns="http://www.w3.org/2000/svg" viewBox="0 0 60 60"><defs><style>.cls-1{fill:#fff;}.cls-2{fill:#f05d80;}.cls-3{fill:#181818;}.cls-4{fill:#2ecdc9;}</style></defs><circle class="cls-2" cx="27.88" cy="32.12" r="25.38"/><circle class="cls-4" cx="32.12" cy="27.88" r="25.38"/><circle class="cls-1" cx="30.71" cy="30.71" r="25.38"/><path class="cls-3" d="M17.07,39.36c3.01,.27,5.72-.47,8.19-2.31-2.57-.24-4.28-1.53-5.24-3.92,.85,.09,1.65,.12,2.43-.11-1.55-.41-2.76-1.28-3.59-2.64-.54-.89-.8-1.85-.79-2.93,.78,.39,1.57,.65,2.49,.67-1.55-1.16-2.38-2.65-2.46-4.53-.04-1,.32-2.33,.78-2.93,3.03,3.57,6.86,5.53,11.54,5.85-.39-2.83,.5-5.06,3.08-6.33,2.4-1.18,4.61-.62,6.6,1.22,.56-.17,1.17-.33,1.76-.55,.58-.22,1.13-.5,1.72-.77-.43,1.27-1.21,2.23-2.3,2.98,.53-.01,1.03-.14,1.53-.28,.5-.14,.99-.32,1.52-.5-.77,1.14-1.69,2.08-2.77,2.86,.12,3.82-.91,7.28-3.17,10.35-1.84,2.5-4.22,4.31-7.14,5.38-2.98,1.09-6.04,1.28-9.14,.62-1.75-.37-4.46-1.52-5.06-2.13Z"/></svg>