<?xml version="1.0" encoding="UTF-8"?><svg id="Layer_1" xmlns="http://www.w3.org/2000/svg" xmlns:xlink="http://www.w3.org/1999/xlink" viewBox="0 0 1920 1080"><defs><style>.cls-1{stroke:#fff;stroke-miterlimit:10;stroke-width:2.01px;}.cls-1,.cls-2{fill:none;}.cls-3{clip-path:url(#clippath-45);}.cls-4{clip-path:url(#clippath-20);}.cls-5{clip-path:url(#clippath-11);}.cls-6{clip-path:url(#clippath-16);}.cls-7,.cls-8,.cls-9{fill:#fff;}.cls-10,.cls-8,.cls-11,.cls-9,.cls-12,.cls-13{font-family:Gotham-Book, Gotham;}.cls-10,.cls-8,.cls-12{font-size:44.44px;}.cls-10,.cls-14,.cls-13{fill:#2ecdc9;}.cls-15{clip-path:url(#clippath-33);}.cls-16{clip-path:url(#clippath-47);}.cls-17{clip-path:url(#clippath-41);}.cls-18{clip-path:url(#clippath-32);}.cls-19{clip-path:url(#clippath-2);}.cls-20{clip-path:url(#clippath-13);}.cls-21,.cls-11,.cls-12{fill:#f05d80;}.cls-22{clip-path:url(#clippath-37);}.cls-23{clip-path:url(#clippath-46);}.cls-24{clip-path:url(#clippath-25);}.cls-25{clip-path:url(#clippath-15);}.cls-26{clip-path:url(#clippath-6);}.cls-27{clip-path:url(#clippath-40);}.cls-28{clip-path:url(#clippath-26);}.cls-29{fill:#90ed7d;}.cls-30{clip-path:url(#clippath-7);}.cls-31{clip-path:url(#clippath-21);}.cls-32{clip-path:url(#clippath-34);}.cls-33{clip-path:url(#clippath-1);}.cls-34{clip-path:url(#clippath-4);}.cls-11,.cls-9,.cls-13{font-size:83.36px;}.cls-35{clip-path:url(#clippath-38);}.cls-36{clip-path:url(#clippath-36);}.cls-37{clip-path:url(#clippath-27);}.cls-38{clip-path:url(#clippath-44);}.cls-39{clip-path:url(#clippath-12);}.cls-40{clip-path:url(#clippath-24);}.cls-41{clip-path:url(#clippath-30);}.cls-42{clip-path:url(#clippath-22);}.cls-43{clip-path:url(#clippath-9);}.cls-44{clip-path:url(#clippath);}.cls-45{clip-path:url(#clippath-48);}.cls-46{clip-path:url(#clippath-39);}.cls-47{clip-path:url(#clippath-19);}.cls-48{clip-path:url(#clippath-31);}.cls-49{clip-path:url(#clippath-3);}.cls-50{clip-path:url(#clippath-43);}.cls-51{clip-path:url(#clippath-8);}.cls-52{clip-path:url(#clippath-29);}.cls-53{clip-path:url(#clippath-18);}.cls-54{clip-path:url(#clippath-14);}.cls-55{clip-path:url(#clippath-17);}.cls-56{clip-path:url(#clippath-5);}.cls-57{clip-path:url(#clippath-42);}.cls-58{clip-path:url(#clippath-10);}.cls-59{clip-path:url(#clippath-23);}.cls-60{clip-path:url(#clippath-49);}.cls-61{clip-path:url(#clippath-28);}.cls-62{clip-path:url(#clippath-35);}</style><clipPath id="clippath"><rect class="cls-2" x="-5" y="-1314.91" width="1930" height="1085.62"/></clipPath><clipPath id="clippath-1"><polygon class="cls-2" points="148.69 -387.27 488.7 -181.27 -252.74 -168.2 148.69 -387.27"/></clipPath><clipPath id="clippath-2"><rect class="cls-2" x="-5" y="-2.81" width="1930" height="1085.62"/></clipPath><clipPath id="clippath-3"><polygon class="cls-2" points="1742.87 992.75 1935.32 1191.29 1991.66 1070.21 1983.66 541.56 1742.87 992.75"/></clipPath><clipPath id="clippath-4"><rect class="cls-2" x="1862.51" y="507.6" width="64.58" height="64.58"/></clipPath><clipPath id="clippath-5"><rect class="cls-2" x="1862.51" y="572.17" width="64.58" height="64.58"/></clipPath><clipPath id="clippath-6"><rect class="cls-2" x="1862.51" y="636.75" width="64.58" height="64.58"/></clipPath><clipPath id="clippath-7"><rect class="cls-2" x="1862.51" y="701.32" width="64.58" height="64.58"/></clipPath><clipPath id="clippath-8"><rect class="cls-2" x="1862.51" y="765.9" width="64.58" height="64.58"/></clipPath><clipPath id="clippath-9"><rect class="cls-2" x="1862.51" y="830.47" width="64.58" height="64.58"/></clipPath><clipPath id="clippath-10"><rect class="cls-2" x="1862.51" y="895.05" width="64.58" height="64.58"/></clipPath><clipPath id="clippath-11"><rect class="cls-2" x="1862.51" y="959.63" width="64.58" height="64.58"/></clipPath><clipPath id="clippath-12"><rect class="cls-2" x="1862.51" y="1024.2" width="64.58" height="64.58"/></clipPath><clipPath id="clippath-13"><rect class="cls-2" x="1797.93" y="507.6" width="64.58" height="64.58"/></clipPath><clipPath id="clippath-14"><rect class="cls-2" x="1797.93" y="572.17" width="64.58" height="64.58"/></clipPath><clipPath id="clippath-15"><rect class="cls-2" x="1797.93" y="636.75" width="64.58" height="64.58"/></clipPath><clipPath id="clippath-16"><rect class="cls-2" x="1797.93" y="701.32" width="64.58" height="64.58"/></clipPath><clipPath id="clippath-17"><rect class="cls-2" x="1797.93" y="765.9" width="64.58" height="64.58"/></clipPath><clipPath id="clippath-18"><rect class="cls-2" x="1797.93" y="830.47" width="64.58" height="64.58"/></clipPath><clipPath id="clippath-19"><rect class="cls-2" x="1797.93" y="895.05" width="64.58" height="64.58"/></clipPath><clipPath id="clippath-20"><rect class="cls-2" x="1797.93" y="959.63" width="64.58" height="64.58"/></clipPath><clipPath id="clippath-21"><rect class="cls-2" x="1797.93" y="1024.2" width="64.58" height="64.58"/></clipPath><clipPath id="clippath-22"><rect class="cls-2" x="1733.36" y="507.6" width="64.58" height="64.58"/></clipPath><clipPath id="clippath-23"><rect class="cls-2" x="1733.36" y="572.17" width="64.58" height="64.58"/></clipPath><clipPath id="clippath-24"><rect class="cls-2" x="1733.36" y="636.75" width="64.58" height="64.58"/></clipPath><clipPath id="clippath-25"><rect class="cls-2" x="1733.36" y="701.32" width="64.58" height="64.58"/></clipPath><clipPath id="clippath-26"><rect class="cls-2" x="1733.36" y="765.9" width="64.58" height="64.58"/></clipPath><clipPath id="clippath-27"><rect class="cls-2" x="1733.36" y="830.47" width="64.58" height="64.58"/></clipPath><clipPath id="clippath-28"><rect class="cls-2" x="1733.36" y="895.05" width="64.58" height="64.58"/></clipPath><clipPath id="clippath-29"><rect class="cls-2" x="1733.36" y="959.63" width="64.58" height="64.58"/></clipPath><clipPath id="clippath-30"><rect class="cls-2" x="1733.36" y="1024.2" width="64.58" height="64.58"/></clipPath><clipPath id="clippath-31"><rect class="cls-2" x="1668.78" y="507.6" width="64.58" height="64.58"/></clipPath><clipPath id="clippath-32"><rect class="cls-2" x="1668.78" y="572.17" width="64.58" height="64.58"/></clipPath><clipPath id="clippath-33"><rect class="cls-2" x="1668.78" y="636.75" width="64.58" height="64.58"/></clipPath><clipPath id="clippath-34"><rect class="cls-2" x="1668.78" y="701.32" width="64.58" height="64.58"/></clipPath><clipPath id="clippath-35"><rect class="cls-2" x="1668.78" y="765.9" width="64.58" height="64.58"/></clipPath><clipPath id="clippath-36"><rect class="cls-2" x="1668.78" y="830.47" width="64.58" height="64.58"/></clipPath><clipPath id="clippath-37"><rect class="cls-2" x="1668.78" y="895.05" width="64.58" height="64.58"/></clipPath><clipPath id="clippath-38"><rect class="cls-2" x="1668.78" y="959.63" width="64.58" height="64.58"/></clipPath><clipPath id="clippath-39"><rect class="cls-2" x="1668.78" y="1024.2" width="64.58" height="64.58"/></clipPath><clipPath id="clippath-40"><rect class="cls-2" x="1604.21" y="507.6" width="64.58" height="64.58"/></clipPath><clipPath id="clippath-41"><rect class="cls-2" x="1604.21" y="572.17" width="64.58" height="64.58"/></clipPath><clipPath id="clippath-42"><rect class="cls-2" x="1604.21" y="636.75" width="64.58" height="64.58"/></clipPath><clipPath id="clippath-43"><rect class="cls-2" x="1604.21" y="701.32" width="64.58" height="64.58"/></clipPath><clipPath id="clippath-44"><rect class="cls-2" x="1604.21" y="765.9" width="64.58" height="64.58"/></clipPath><clipPath id="clippath-45"><rect class="cls-2" x="1604.21" y="830.47" width="64.58" height="64.58"/></clipPath><clipPath id="clippath-46"><rect class="cls-2" x="1604.21" y="895.05" width="64.58" height="64.58"/></clipPath><clipPath id="clippath-47"><rect class="cls-2" x="1604.21" y="959.63" width="64.58" height="64.58"/></clipPath><clipPath id="clippath-48"><rect class="cls-2" x="1604.21" y="1024.2" width="64.58" height="64.58"/></clipPath><clipPath id="clippath-49"><polygon class="cls-2" points="148.69 924.83 488.7 1130.82 -252.74 1143.9 148.69 924.83"/></clipPath></defs><g class="cls-44"><g><g><path class="cls-21" d="M1679.92-317.4c-.03-.38,.04-.77,.23-1.13l283.26-532.63c.41-.78,1.29-1.2,2.15-1.04,.87,.16,1.53,.86,1.64,1.74l120.7,978.79c.15,.81-.36,1.72-1.16,2.08-.8,.37-1.75,.17-2.34-.48l-403.97-446.16c-.3-.33-.48-.75-.51-1.18Zm284.06-526.2l-279.59,525.72,398.73,440.38-119.14-966.1Z"/><path class="cls-21" d="M1425.85-281.21c-.02-.2,0-.39,.04-.59,.18-.83,.85-1.46,1.69-1.58l254.07-36.19c.66-.1,1.33,.15,1.78,.64l403.97,446.16c.67,.74,.7,1.88,.05,2.65-.65,.77-1.76,.95-2.62,.42l-658.04-409.97c-.55-.34-.89-.92-.94-1.54Zm255.31-34.21l-247.51,35.26L2074.7,119.23l-393.55-434.65Z"/><path class="cls-21" d="M1425.85-281.21c-.06-.7,.25-1.39,.83-1.82,.67-.48,1.55-.51,2.25-.07L2086.97,126.88c.69,.43,1.05,1.25,.93,2.03-.13,.8-.73,1.45-1.52,1.64l-528.43,127.18c-1.08,.26-2.17-.4-2.44-1.49l-129.61-537.16c-.02-.1-.04-.2-.05-.3ZM2080.74,127.75l-649.75-404.81,127.98,530.39,521.77-125.59Z"/></g><g><path class="cls-14" d="M1686.45-314.17c-.03-.38,.04-.77,.23-1.13l283.26-532.63c.41-.78,1.29-1.2,2.15-1.04,.87,.16,1.53,.86,1.64,1.74l120.7,978.79c.15,.81-.36,1.72-1.16,2.08-.8,.37-1.75,.17-2.34-.48l-403.97-446.16c-.3-.33-.48-.75-.51-1.18Zm284.06-526.2l-279.59,525.72,398.73,440.38-119.14-966.1Z"/><path class="cls-14" d="M1432.38-277.98c-.02-.2,0-.39,.04-.59,.18-.83,.85-1.46,1.69-1.58l254.07-36.19c.66-.1,1.33,.15,1.78,.64l403.97,446.16c.67,.74,.7,1.88,.05,2.65-.65,.77-1.76,.95-2.62,.42l-658.04-409.97c-.55-.34-.89-.92-.94-1.54Zm255.31-34.21l-247.51,35.26L2081.23,122.46l-393.55-434.65Z"/><path class="cls-14" d="M1432.38-277.98c-.06-.7,.25-1.39,.83-1.82,.67-.48,1.55-.51,2.25-.07l658.04,409.97c.69,.43,1.05,1.25,.93,2.03-.13,.8-.73,1.45-1.52,1.64l-528.43,127.18c-1.08,.26-2.17-.4-2.44-1.49l-129.61-537.16c-.02-.1-.04-.2-.05-.3Zm654.89,408.96l-649.75-404.81,127.98,530.39,521.77-125.59Z"/></g><g><path class="cls-7" d="M1682.55-315.71c-.03-.38,.04-.77,.23-1.13l283.26-532.63c.41-.78,1.29-1.2,2.15-1.04,.87,.16,1.53,.86,1.64,1.74l120.7,978.79c.15,.81-.36,1.72-1.16,2.08-.8,.37-1.75,.17-2.34-.48l-403.97-446.16c-.3-.33-.48-.75-.51-1.18Zm284.06-526.2l-279.59,525.72,398.73,440.38-119.14-966.1Z"/><path class="cls-7" d="M1428.48-279.52c-.02-.2,0-.39,.04-.59,.18-.83,.85-1.46,1.69-1.58l254.07-36.19c.66-.1,1.33,.15,1.78,.64l403.97,446.16c.67,.74,.7,1.88,.05,2.65-.65,.77-1.76,.95-2.62,.42l-658.04-409.97c-.55-.34-.89-.92-.94-1.54Zm255.31-34.21l-247.51,35.26L2077.33,120.92l-393.55-434.65Z"/><path class="cls-7" d="M1428.48-279.52c-.06-.7,.25-1.39,.83-1.82,.67-.48,1.55-.51,2.25-.07l658.04,409.97c.69,.43,1.05,1.25,.93,2.03-.13,.8-.73,1.45-1.52,1.64l-528.43,127.18c-1.08,.26-2.17-.4-2.44-1.49l-129.61-537.16c-.02-.1-.04-.2-.05-.3Zm654.89,408.96l-649.75-404.81,127.98,530.39,521.77-125.59Z"/></g></g><g class="cls-33"><path class="cls-1" d="M-259.96-433.63c19.82,9.85,9.09,31.45,28.9,41.3,19.82,9.85,30.55-11.76,50.37-1.91,19.82,9.85,9.08,31.45,28.9,41.3,19.82,9.85,30.55-11.76,50.37-1.91,19.82,9.85,9.09,31.45,28.91,41.3,19.82,9.85,30.56-11.76,50.38-1.91,19.82,9.85,9.09,31.45,28.91,41.3,19.82,9.85,30.56-11.76,50.38-1.91,19.82,9.85,9.09,31.45,28.91,41.3,19.82,9.85,30.56-11.76,50.38-1.91,19.82,9.85,9.09,31.45,28.91,41.3,19.82,9.85,30.56-11.76,50.38-1.91,19.82,9.85,9.09,31.45,28.91,41.3,19.82,9.85,30.56-11.76,50.38-1.91,19.82,9.85,9.09,31.45,28.91,41.3,19.82,9.85,30.56-11.76,50.38-1.91,19.82,9.85,9.09,31.45,28.91,41.3,19.82,9.85,30.56-11.76,50.38-1.91,19.82,9.85,9.09,31.45,28.91,41.3,19.83,9.85,30.56-11.75,50.39-1.9,19.83,9.85,9.09,31.46,28.92,41.31"/><path class="cls-1" d="M-265.95-422.24c19.82,9.85,9.09,31.45,28.9,41.3,19.82,9.85,30.55-11.76,50.37-1.91,19.82,9.85,9.08,31.45,28.9,41.3,19.82,9.85,30.55-11.76,50.37-1.91,19.82,9.85,9.09,31.45,28.91,41.3,19.82,9.85,30.56-11.76,50.38-1.91,19.82,9.85,9.09,31.45,28.91,41.3,19.82,9.85,30.56-11.76,50.38-1.91,19.82,9.85,9.09,31.45,28.91,41.3,19.82,9.85,30.56-11.76,50.38-1.91,19.82,9.85,9.09,31.45,28.91,41.3,19.82,9.85,30.56-11.76,50.38-1.91,19.82,9.85,9.09,31.45,28.91,41.3,19.82,9.85,30.56-11.76,50.38-1.91,19.82,9.85,9.09,31.45,28.91,41.3,19.82,9.85,30.56-11.76,50.38-1.91,19.82,9.85,9.09,31.45,28.91,41.3,19.82,9.85,30.56-11.76,50.38-1.91,19.82,9.85,9.09,31.45,28.91,41.3,19.83,9.85,30.56-11.75,50.39-1.9,19.83,9.85,9.09,31.46,28.92,41.31"/><path class="cls-1" d="M-271.94-410.86c19.82,9.85,9.09,31.45,28.9,41.3,19.82,9.85,30.55-11.76,50.37-1.91s9.08,31.45,28.9,41.3c19.82,9.85,30.55-11.76,50.37-1.91,19.82,9.85,9.09,31.45,28.91,41.3,19.82,9.85,30.56-11.76,50.38-1.91,19.82,9.85,9.09,31.45,28.91,41.3,19.82,9.85,30.56-11.76,50.38-1.91,19.82,9.85,9.09,31.45,28.91,41.3,19.82,9.85,30.56-11.76,50.38-1.91,19.82,9.85,9.09,31.45,28.91,41.3,19.82,9.85,30.56-11.76,50.38-1.91,19.82,9.85,9.09,31.45,28.91,41.3,19.82,9.85,30.56-11.76,50.38-1.91,19.82,9.85,9.09,31.45,28.91,41.3,19.82,9.85,30.56-11.76,50.38-1.91,19.82,9.85,9.09,31.45,28.91,41.3,19.82,9.85,30.56-11.76,50.38-1.91,19.82,9.85,9.09,31.45,28.91,41.3,19.83,9.85,30.56-11.75,50.39-1.9,19.83,9.85,9.09,31.46,28.92,41.31"/><path class="cls-1" d="M-277.94-399.47c19.82,9.85,9.09,31.45,28.9,41.3,19.82,9.85,30.55-11.76,50.37-1.91,19.82,9.85,9.08,31.45,28.9,41.3,19.82,9.85,30.55-11.76,50.37-1.91,19.82,9.85,9.09,31.45,28.91,41.3,19.82,9.85,30.56-11.76,50.38-1.91,19.82,9.85,9.09,31.45,28.91,41.3,19.82,9.85,30.56-11.76,50.38-1.91,19.82,9.85,9.09,31.45,28.91,41.3,19.82,9.85,30.56-11.76,50.38-1.91,19.82,9.85,9.09,31.45,28.91,41.3,19.82,9.85,30.56-11.76,50.38-1.91,19.82,9.85,9.09,31.45,28.91,41.3,19.82,9.85,30.56-11.76,50.38-1.91,19.82,9.85,9.09,31.45,28.91,41.3,19.82,9.85,30.56-11.76,50.38-1.91,19.82,9.85,9.09,31.45,28.91,41.3,19.82,9.85,30.56-11.76,50.38-1.91s9.09,31.45,28.91,41.3c19.83,9.85,30.56-11.75,50.39-1.9s9.09,31.46,28.92,41.31"/><path class="cls-1" d="M-283.93-388.08c19.82,9.85,9.09,31.45,28.9,41.3s30.55-11.76,50.37-1.91c19.82,9.85,9.08,31.45,28.9,41.3,19.82,9.85,30.55-11.76,50.37-1.91,19.82,9.85,9.09,31.45,28.91,41.3,19.82,9.85,30.56-11.76,50.38-1.91,19.82,9.85,9.09,31.45,28.91,41.3,19.82,9.85,30.56-11.76,50.38-1.91,19.82,9.85,9.09,31.45,28.91,41.3,19.82,9.85,30.56-11.76,50.38-1.91,19.82,9.85,9.09,31.45,28.91,41.3,19.82,9.85,30.56-11.76,50.38-1.91,19.82,9.85,9.09,31.45,28.91,41.3,19.82,9.85,30.56-11.76,50.38-1.91,19.82,9.85,9.09,31.45,28.91,41.3,19.82,9.85,30.56-11.76,50.38-1.91,19.82,9.85,9.09,31.45,28.91,41.3,19.82,9.85,30.56-11.76,50.38-1.91s9.09,31.45,28.91,41.3c19.83,9.85,30.56-11.75,50.39-1.9,19.83,9.85,9.09,31.46,28.92,41.31"/><path class="cls-1" d="M-289.93-376.69c19.82,9.85,9.09,31.45,28.9,41.3,19.82,9.85,30.55-11.76,50.37-1.91,19.82,9.85,9.08,31.45,28.9,41.3,19.82,9.85,30.55-11.76,50.37-1.91,19.82,9.85,9.09,31.45,28.91,41.3,19.82,9.85,30.56-11.76,50.38-1.91,19.82,9.85,9.09,31.45,28.91,41.3,19.82,9.85,30.56-11.76,50.38-1.91,19.82,9.85,9.09,31.45,28.91,41.3,19.82,9.85,30.56-11.76,50.38-1.91,19.82,9.85,9.09,31.45,28.91,41.3,19.82,9.85,30.56-11.76,50.38-1.91s9.09,31.45,28.91,41.3c19.82,9.85,30.56-11.76,50.38-1.91,19.82,9.85,9.09,31.45,28.91,41.3,19.82,9.85,30.56-11.76,50.38-1.91,19.82,9.85,9.09,31.45,28.91,41.3,19.82,9.85,30.56-11.76,50.38-1.91,19.82,9.85,9.09,31.45,28.91,41.3,19.83,9.85,30.56-11.75,50.39-1.9,19.83,9.85,9.09,31.46,28.92,41.31"/><path class="cls-1" d="M-295.92-365.3c19.82,9.85,9.09,31.45,28.9,41.3,19.82,9.85,30.55-11.76,50.37-1.91,19.82,9.85,9.08,31.45,28.9,41.3,19.82,9.85,30.55-11.76,50.37-1.91,19.82,9.85,9.09,31.45,28.91,41.3,19.82,9.85,30.56-11.76,50.38-1.91s9.09,31.45,28.91,41.3c19.82,9.85,30.56-11.76,50.38-1.91,19.82,9.85,9.09,31.45,28.91,41.3,19.82,9.85,30.56-11.76,50.38-1.91,19.82,9.85,9.09,31.45,28.91,41.3,19.82,9.85,30.56-11.76,50.38-1.91,19.82,9.85,9.09,31.45,28.91,41.3,19.82,9.85,30.56-11.76,50.38-1.91,19.82,9.85,9.09,31.45,28.91,41.3,19.82,9.85,30.56-11.76,50.38-1.91,19.82,9.85,9.09,31.45,28.91,41.3,19.82,9.85,30.56-11.76,50.38-1.91s9.09,31.45,28.91,41.3c19.83,9.85,30.56-11.75,50.39-1.9,19.83,9.85,9.09,31.46,28.92,41.31"/><path class="cls-1" d="M-301.91-353.92c19.82,9.85,9.09,31.45,28.9,41.3s30.55-11.76,50.37-1.91,9.08,31.45,28.9,41.3c19.82,9.85,30.55-11.76,50.37-1.91,19.82,9.85,9.09,31.45,28.91,41.3,19.82,9.85,30.56-11.76,50.38-1.91,19.82,9.85,9.09,31.45,28.91,41.3,19.82,9.85,30.56-11.76,50.38-1.91,19.82,9.85,9.09,31.45,28.91,41.3,19.82,9.85,30.56-11.76,50.38-1.91,19.82,9.85,9.09,31.45,28.91,41.3,19.82,9.85,30.56-11.76,50.38-1.91,19.82,9.85,9.09,31.45,28.91,41.3,19.82,9.85,30.56-11.76,50.38-1.91,19.82,9.85,9.09,31.45,28.91,41.3,19.82,9.85,30.56-11.76,50.38-1.91,19.82,9.85,9.09,31.45,28.91,41.3,19.82,9.85,30.56-11.76,50.38-1.91,19.82,9.85,9.09,31.45,28.91,41.3,19.83,9.85,30.56-11.75,50.39-1.9,19.83,9.85,9.09,31.46,28.92,41.31"/><path class="cls-1" d="M-307.91-342.53c19.82,9.85,9.09,31.45,28.9,41.3,19.82,9.85,30.55-11.76,50.37-1.91,19.82,9.85,9.08,31.45,28.9,41.3,19.82,9.85,30.55-11.76,50.37-1.91,19.82,9.85,9.09,31.45,28.91,41.3,19.82,9.85,30.56-11.76,50.38-1.91,19.82,9.85,9.09,31.45,28.91,41.3,19.82,9.85,30.56-11.76,50.38-1.91,19.82,9.85,9.09,31.45,28.91,41.3,19.82,9.85,30.56-11.76,50.38-1.91,19.82,9.85,9.09,31.45,28.91,41.3,19.82,9.85,30.56-11.76,50.38-1.91,19.82,9.85,9.09,31.45,28.91,41.3,19.82,9.85,30.56-11.76,50.38-1.91,19.82,9.85,9.09,31.45,28.91,41.3,19.82,9.85,30.56-11.76,50.38-1.91,19.82,9.85,9.09,31.45,28.91,41.3,19.82,9.85,30.56-11.76,50.38-1.91,19.82,9.85,9.09,31.45,28.91,41.3,19.83,9.85,30.56-11.75,50.39-1.9,19.83,9.85,9.09,31.46,28.92,41.31"/><path class="cls-1" d="M-313.9-331.14c19.82,9.85,9.09,31.45,28.9,41.3,19.82,9.85,30.55-11.76,50.37-1.91,19.82,9.85,9.08,31.45,28.9,41.3,19.82,9.85,30.55-11.76,50.37-1.91,19.82,9.85,9.09,31.45,28.91,41.3,19.82,9.85,30.56-11.76,50.38-1.91,19.82,9.85,9.09,31.45,28.91,41.3,19.82,9.85,30.56-11.76,50.38-1.91,19.82,9.85,9.09,31.45,28.91,41.3,19.82,9.85,30.56-11.76,50.38-1.91,19.82,9.85,9.09,31.45,28.91,41.3,19.82,9.85,30.56-11.76,50.38-1.91,19.82,9.85,9.09,31.45,28.91,41.3,19.82,9.85,30.56-11.76,50.38-1.91,19.82,9.85,9.09,31.45,28.91,41.3,19.82,9.85,30.56-11.76,50.38-1.91,19.82,9.85,9.09,31.45,28.91,41.3,19.82,9.85,30.56-11.76,50.38-1.91,19.82,9.85,9.09,31.45,28.91,41.3,19.83,9.85,30.56-11.75,50.39-1.9,19.83,9.85,9.09,31.46,28.92,41.31"/><path class="cls-1" d="M-319.89-319.75c19.82,9.85,9.09,31.45,28.9,41.3,19.82,9.85,30.55-11.76,50.37-1.91,19.82,9.85,9.08,31.45,28.9,41.3,19.82,9.85,30.55-11.76,50.37-1.91,19.82,9.85,9.09,31.45,28.91,41.3,19.82,9.85,30.56-11.76,50.38-1.91,19.82,9.85,9.09,31.45,28.91,41.3,19.82,9.85,30.56-11.76,50.38-1.91s9.09,31.45,28.91,41.3c19.82,9.85,30.56-11.76,50.38-1.91,19.82,9.85,9.09,31.45,28.91,41.3,19.82,9.85,30.56-11.76,50.38-1.91,19.82,9.85,9.09,31.45,28.91,41.3,19.82,9.85,30.56-11.76,50.38-1.91,19.82,9.85,9.09,31.45,28.91,41.3,19.82,9.85,30.56-11.76,50.38-1.91,19.82,9.85,9.09,31.45,28.91,41.3,19.82,9.85,30.56-11.76,50.38-1.91,19.82,9.85,9.09,31.45,28.91,41.3,19.83,9.85,30.56-11.75,50.39-1.9,19.83,9.85,9.09,31.46,28.92,41.31"/><path class="cls-1" d="M-325.89-308.36c19.82,9.85,9.09,31.45,28.9,41.3,19.82,9.85,30.55-11.76,50.37-1.91,19.82,9.85,9.08,31.45,28.9,41.3,19.82,9.85,30.55-11.76,50.37-1.91,19.82,9.85,9.09,31.45,28.91,41.3,19.82,9.85,30.56-11.76,50.38-1.91,19.82,9.85,9.09,31.45,28.91,41.3,19.82,9.85,30.56-11.76,50.38-1.91,19.82,9.85,9.09,31.45,28.91,41.3,19.82,9.85,30.56-11.76,50.38-1.91,19.82,9.85,9.09,31.45,28.91,41.3,19.82,9.85,30.56-11.76,50.38-1.91,19.82,9.85,9.09,31.45,28.91,41.3,19.82,9.85,30.56-11.76,50.38-1.91,19.82,9.85,9.09,31.45,28.91,41.3,19.82,9.85,30.56-11.76,50.38-1.91,19.82,9.85,9.09,31.45,28.91,41.3,19.82,9.85,30.56-11.76,50.38-1.91,19.82,9.85,9.09,31.45,28.91,41.3,19.83,9.85,30.56-11.75,50.39-1.9,19.83,9.85,9.09,31.46,28.92,41.31"/></g></g><g class="cls-19"><g><g><path class="cls-21" d="M1679.92,994.7c-.03-.38,.04-.77,.23-1.13l283.26-532.63c.41-.78,1.29-1.2,2.15-1.04,.87,.16,1.53,.86,1.64,1.74l120.7,978.79c.15,.81-.36,1.72-1.16,2.08-.8,.37-1.75,.17-2.34-.48l-403.97-446.16c-.3-.33-.48-.75-.51-1.18Zm284.06-526.2l-279.59,525.72,398.73,440.38-119.14-966.1Z"/><path class="cls-21" d="M1425.85,1030.89c-.02-.2,0-.39,.04-.59,.18-.83,.85-1.46,1.69-1.58l254.07-36.19c.66-.1,1.33,.15,1.78,.64l403.97,446.16c.67,.74,.7,1.88,.05,2.65-.65,.77-1.76,.95-2.62,.42l-658.04-409.97c-.55-.34-.89-.92-.94-1.54Zm255.31-34.21l-247.51,35.26,641.06,399.4-393.55-434.65Z"/><path class="cls-21" d="M1425.85,1030.89c-.06-.7,.25-1.39,.83-1.82,.67-.48,1.55-.51,2.25-.07l658.04,409.97c.69,.43,1.05,1.25,.93,2.03-.13,.8-.73,1.45-1.52,1.64l-528.43,127.18c-1.08,.26-2.17-.4-2.44-1.49l-129.61-537.16c-.02-.1-.04-.2-.05-.3Zm654.89,408.96l-649.75-404.81,127.98,530.39,521.77-125.59Z"/><path class="cls-21" d="M1638.26,612.99c-.07-.85,.39-1.65,1.16-2.01l324.92-150.92c.79-.37,1.72-.19,2.32,.44,.6,.63,.72,1.58,.32,2.34l-283.26,532.63c-.42,.78-1.3,1.2-2.17,1.03-.87-.17-1.53-.88-1.63-1.76l-41.66-381.71v-.04Zm322.32-146.72l-318.14,147.77,40.79,373.75,277.35-521.51Z"/></g><g><path class="cls-14" d="M1686.45,997.93c-.03-.38,.04-.77,.23-1.13l283.26-532.63c.41-.78,1.29-1.2,2.15-1.04,.87,.16,1.53,.86,1.64,1.74l120.7,978.79c.15,.81-.36,1.72-1.16,2.08-.8,.37-1.75,.17-2.34-.48l-403.97-446.16c-.3-.33-.48-.75-.51-1.18Zm284.06-526.2l-279.59,525.72,398.73,440.38-119.14-966.1Z"/><path class="cls-14" d="M1432.38,1034.12c-.02-.2,0-.39,.04-.59,.18-.83,.85-1.46,1.69-1.58l254.07-36.19c.66-.1,1.33,.15,1.78,.64l403.97,446.16c.67,.74,.7,1.88,.05,2.65-.65,.77-1.76,.95-2.62,.42l-658.04-409.97c-.55-.34-.89-.92-.94-1.54Zm255.31-34.21l-247.51,35.26,641.06,399.4-393.55-434.65Z"/><path class="cls-14" d="M1432.38,1034.12c-.06-.7,.25-1.39,.83-1.82,.67-.48,1.55-.51,2.25-.07l658.04,409.97c.69,.43,1.05,1.25,.93,2.03-.13,.8-.73,1.45-1.52,1.64l-528.43,127.18c-1.08,.26-2.17-.4-2.44-1.49l-129.61-537.16c-.02-.1-.04-.2-.05-.3Zm654.89,408.96l-649.75-404.81,127.98,530.39,521.77-125.59Z"/><path class="cls-14" d="M1644.79,616.22c-.07-.85,.39-1.65,1.16-2.01l324.92-150.92c.79-.37,1.72-.19,2.32,.44,.6,.63,.72,1.58,.32,2.34l-283.26,532.63c-.42,.78-1.3,1.2-2.17,1.03-.87-.17-1.53-.88-1.63-1.76l-41.66-381.71v-.04Zm322.32-146.72l-318.14,147.77,40.79,373.75,277.35-521.51Z"/></g><g><path class="cls-7" d="M1682.55,996.39c-.03-.38,.04-.77,.23-1.13l283.26-532.63c.41-.78,1.29-1.2,2.15-1.04,.87,.16,1.53,.86,1.64,1.74l120.7,978.79c.15,.81-.36,1.72-1.16,2.08-.8,.37-1.75,.17-2.34-.48l-403.97-446.16c-.3-.33-.48-.75-.51-1.18Zm284.06-526.2l-279.59,525.72,398.73,440.38-119.14-966.1Z"/><path class="cls-7" d="M1428.48,1032.58c-.02-.2,0-.39,.04-.59,.18-.83,.85-1.46,1.69-1.58l254.07-36.19c.66-.1,1.33,.15,1.78,.64l403.97,446.16c.67,.74,.7,1.88,.05,2.65-.65,.77-1.76,.95-2.62,.42l-658.04-409.97c-.55-.34-.89-.92-.94-1.54Zm255.31-34.21l-247.51,35.26,641.06,399.4-393.55-434.65Z"/><path class="cls-7" d="M1428.48,1032.58c-.06-.7,.25-1.39,.83-1.82,.67-.48,1.55-.51,2.25-.07l658.04,409.97c.69,.43,1.05,1.25,.93,2.03-.13,.8-.73,1.45-1.52,1.64l-528.43,127.18c-1.08,.26-2.17-.4-2.44-1.49l-129.61-537.16c-.02-.1-.04-.2-.05-.3Zm654.89,408.96l-649.75-404.81,127.98,530.39,521.77-125.59Z"/><path class="cls-7" d="M1640.89,614.68c-.07-.85,.39-1.65,1.16-2.01l324.92-150.92c.79-.37,1.72-.19,2.32,.44,.6,.63,.72,1.58,.32,2.34l-283.26,532.63c-.42,.78-1.3,1.2-2.17,1.03-.87-.17-1.53-.88-1.63-1.76l-41.66-381.71v-.04Zm322.32-146.72l-318.14,147.77,40.79,373.75,277.35-521.51Z"/></g></g><g><g><path class="cls-21" d="M-769.03,657.9c-.77,.17-1.57-.13-2.04-.76-.49-.65-.54-1.53-.13-2.24L-425.5,66.57c.56-.95,1.77-1.27,2.74-.73L187.06,410.09c.72,.41,1.12,1.21,1.01,2.03-.11,.82-.71,1.49-1.51,1.69l-955.52,244.07s-.05,.01-.07,.02ZM-423.02,70.33l-342.24,582.43L180.69,411.14-423.02,70.33Z"/><path class="cls-21" d="M-204.73,871.2c-.37,.08-.77,.06-1.14-.08l-564.3-213.3c-.82-.31-1.35-1.12-1.3-2,.05-.88,.66-1.63,1.52-1.85L185.57,409.89c.78-.25,1.75,.14,2.21,.89,.47,.75,.39,1.71-.18,2.38L-203.62,870.54c-.29,.34-.68,.57-1.1,.66Zm-558.03-214.9L-205.77,866.84,180.38,415.39l-943.14,240.91Z"/><path class="cls-21" d="M-136.55,1118.61c-.19,.04-.39,.06-.59,.04-.85-.07-1.56-.66-1.78-1.48l-68.17-247.41c-.18-.65-.03-1.34,.41-1.85L184.53,410.54c.65-.76,1.77-.93,2.62-.39,.85,.54,1.17,1.63,.75,2.54L-135.15,1117.48c-.27,.59-.8,1-1.41,1.13Zm-66.37-248.89l66.42,241.03L178.21,424.15-202.93,869.72Z"/><path class="cls-21" d="M-136.55,1118.61c-.69,.15-1.41-.07-1.91-.59-.56-.6-.7-1.48-.36-2.22L184.23,411.01c.34-.74,1.11-1.21,1.9-1.18,.81,.03,1.54,.54,1.82,1.3l193.29,507.99c.4,1.04-.13,2.21-1.17,2.61l-516.34,196.8c-.09,.04-.19,.06-.29,.09ZM185.89,417.08L-133.09,1112.99l509.84-194.32L185.89,417.08Z"/></g><g><path class="cls-14" d="M-766.65,651.01c-.77,.17-1.57-.13-2.04-.76-.49-.65-.54-1.53-.13-2.24L-423.12,59.69c.56-.95,1.77-1.27,2.74-.73L189.44,403.21c.72,.41,1.12,1.21,1.01,2.03-.11,.82-.71,1.49-1.51,1.69l-955.52,244.07s-.05,.01-.07,.02ZM-420.64,63.45l-342.24,582.43L183.07,404.25-420.64,63.45Z"/><path class="cls-14" d="M-202.35,864.32c-.37,.08-.77,.06-1.14-.08l-564.3-213.3c-.82-.31-1.35-1.12-1.3-2,.05-.88,.66-1.63,1.52-1.85L187.94,403.01c.78-.25,1.75,.14,2.21,.89,.47,.75,.39,1.71-.18,2.38L-201.25,863.66c-.29,.34-.68,.57-1.1,.66Zm-558.03-214.9L-203.4,859.95,182.76,408.5l-943.14,240.91Z"/><path class="cls-14" d="M-134.18,1111.73c-.19,.04-.39,.06-.59,.04-.85-.07-1.56-.66-1.78-1.48l-68.17-247.41c-.18-.65-.03-1.34,.41-1.85L186.91,403.65c.65-.76,1.77-.93,2.62-.39,.85,.54,1.17,1.63,.75,2.54L-132.77,1110.6c-.27,.59-.8,1-1.41,1.13Zm-66.37-248.89l66.42,241.03L180.59,417.26-200.55,862.84Z"/><path class="cls-14" d="M-134.18,1111.73c-.69,.15-1.41-.07-1.91-.59-.56-.6-.7-1.48-.36-2.22L186.61,404.12c.34-.74,1.11-1.21,1.9-1.18,.81,.03,1.54,.54,1.82,1.3l193.29,507.99c.4,1.04-.13,2.21-1.17,2.61l-516.34,196.8c-.09,.04-.19,.06-.29,.09ZM188.27,410.2L-130.71,1106.11l509.84-194.32L188.27,410.2Z"/></g><g><path class="cls-7" d="M-767.69,655.08c-.77,.17-1.57-.13-2.04-.76-.49-.65-.54-1.53-.13-2.24L-424.16,63.75c.56-.95,1.77-1.27,2.74-.73L188.4,407.28c.72,.41,1.12,1.21,1.01,2.03-.11,.82-.71,1.49-1.51,1.69l-955.52,244.07s-.05,.01-.07,.02ZM-421.68,67.51l-342.24,582.43L182.03,408.32-421.68,67.51Z"/><path class="cls-7" d="M-203.39,868.38c-.37,.08-.77,.06-1.14-.08l-564.3-213.3c-.82-.31-1.35-1.12-1.3-2,.05-.88,.66-1.63,1.52-1.85L186.91,407.08c.78-.25,1.75,.14,2.21,.89,.47,.75,.39,1.71-.18,2.38L-202.28,867.72c-.29,.34-.68,.57-1.1,.66Zm-558.03-214.9L-204.43,864.02,181.72,412.57l-943.14,240.91Z"/><path class="cls-7" d="M-135.21,1115.8c-.19,.04-.39,.06-.59,.04-.85-.07-1.56-.66-1.78-1.48l-68.17-247.41c-.18-.65-.03-1.34,.41-1.85L185.87,407.72c.65-.76,1.77-.93,2.62-.39,.85,.54,1.17,1.63,.75,2.54L-133.81,1114.66c-.27,.59-.8,1-1.41,1.13Zm-66.37-248.89l66.42,241.03L179.55,421.33-201.59,866.91Z"/><path class="cls-7" d="M-135.21,1115.8c-.69,.15-1.41-.07-1.91-.59-.56-.6-.7-1.48-.36-2.22L185.57,408.19c.34-.74,1.11-1.21,1.9-1.18,.81,.03,1.54,.54,1.82,1.3l193.29,507.99c.4,1.04-.13,2.21-1.17,2.61l-516.34,196.8c-.09,.04-.19,.06-.29,.09ZM187.23,414.26L-131.75,1110.18l509.84-194.32L187.23,414.26Z"/></g></g><rect class="cls-2" x="-5" y="-2.81" width="1930" height="1085.62"/><g><text class="cls-11" transform="translate(1559.23 919.03)"><tspan x="0" y="0">+</tspan></text><text class="cls-13" transform="translate(1553.2 919.03)"><tspan x="0" y="0">+</tspan></text><text class="cls-9" transform="translate(1556.22 919.03)"><tspan x="0" y="0">+</tspan></text></g><g><text class="cls-12" transform="translate(172.57 771.7)"><tspan x="0" y="0">+</tspan></text><text class="cls-10" transform="translate(169.35 771.7)"><tspan x="0" y="0">+</tspan></text><text class="cls-8" transform="translate(170.96 771.7)"><tspan x="0" y="0">+</tspan></text></g><g><text class="cls-12" transform="translate(1714.3 450.59)"><tspan x="0" y="0">+</tspan></text><text class="cls-10" transform="translate(1711.09 450.59)"><tspan x="0" y="0">+</tspan></text><text class="cls-8" transform="translate(1712.69 450.59)"><tspan x="0" y="0">+</tspan></text></g><g><text class="cls-11" transform="translate(117.98 279.49)"><tspan x="0" y="0">+</tspan></text><text class="cls-13" transform="translate(111.95 279.49)"><tspan x="0" y="0">+</tspan></text><text class="cls-9" transform="translate(114.97 279.49)"><tspan x="0" y="0">+</tspan></text></g><polygon class="cls-21" points="1742.87 992.75 1935.32 1191.29 2004.34 1072.01 1983.66 541.56 1742.87 992.75"/><g class="cls-49"><g class="cls-34"><circle class="cls-7" cx="1910.94" cy="572.17" r="1.91"/><path class="cls-7" d="M1880.56,572.17c0,1.05-.85,1.91-1.91,1.91s-1.91-.85-1.91-1.91,.85-1.91,1.91-1.91,1.91,.85,1.91,1.91Z"/><path class="cls-7" d="M1896.71,539.88c0,1.05-.85,1.91-1.91,1.91s-1.91-.85-1.91-1.91,.85-1.91,1.91-1.91,1.91,.85,1.91,1.91Z"/><circle class="cls-7" cx="1862.51" cy="539.88" r="1.91"/><circle class="cls-7" cx="1910.94" cy="507.6" r="1.91"/><path class="cls-7" d="M1880.56,507.6c0,1.05-.85,1.91-1.91,1.91s-1.91-.85-1.91-1.91,.85-1.91,1.91-1.91,1.91,.85,1.91,1.91Z"/></g><g class="cls-56"><circle class="cls-7" cx="1910.94" cy="636.75" r="1.91"/><path class="cls-7" d="M1880.56,636.75c0,1.05-.85,1.91-1.91,1.91s-1.91-.85-1.91-1.91,.85-1.91,1.91-1.91,1.91,.85,1.91,1.91Z"/><path class="cls-7" d="M1896.71,604.46c0,1.05-.85,1.91-1.91,1.91s-1.91-.85-1.91-1.91,.85-1.91,1.91-1.91,1.91,.85,1.91,1.91Z"/><circle class="cls-7" cx="1862.51" cy="604.46" r="1.91"/><circle class="cls-7" cx="1910.94" cy="572.17" r="1.91"/><path class="cls-7" d="M1880.56,572.17c0,1.05-.85,1.91-1.91,1.91s-1.91-.85-1.91-1.91,.85-1.91,1.91-1.91,1.91,.85,1.91,1.91Z"/></g><g class="cls-26"><circle class="cls-7" cx="1910.94" cy="701.32" r="1.91"/><path class="cls-7" d="M1880.56,701.32c0,1.05-.85,1.91-1.91,1.91s-1.91-.85-1.91-1.91,.85-1.91,1.91-1.91,1.91,.85,1.91,1.91Z"/><path class="cls-7" d="M1896.71,669.04c0,1.05-.85,1.91-1.91,1.91s-1.91-.85-1.91-1.91,.85-1.91,1.91-1.91,1.91,.85,1.91,1.91Z"/><circle class="cls-7" cx="1862.51" cy="669.04" r="1.91"/><circle class="cls-7" cx="1910.94" cy="636.75" r="1.91"/><path class="cls-7" d="M1880.56,636.75c0,1.05-.85,1.91-1.91,1.91s-1.91-.85-1.91-1.91,.85-1.91,1.91-1.91,1.91,.85,1.91,1.91Z"/></g><g class="cls-30"><circle class="cls-7" cx="1910.94" cy="765.9" r="1.91"/><path class="cls-7" d="M1880.56,765.9c0,1.05-.85,1.91-1.91,1.91s-1.91-.85-1.91-1.91,.85-1.91,1.91-1.91,1.91,.85,1.91,1.91Z"/><path class="cls-7" d="M1896.71,733.61c0,1.05-.85,1.91-1.91,1.91s-1.91-.85-1.91-1.91,.85-1.91,1.91-1.91,1.91,.85,1.91,1.91Z"/><circle class="cls-7" cx="1862.51" cy="733.61" r="1.91"/><circle class="cls-7" cx="1910.94" cy="701.32" r="1.91"/><path class="cls-7" d="M1880.56,701.32c0,1.05-.85,1.91-1.91,1.91s-1.91-.85-1.91-1.91,.85-1.91,1.91-1.91,1.91,.85,1.91,1.91Z"/></g><g class="cls-51"><circle class="cls-7" cx="1910.94" cy="830.47" r="1.91"/><path class="cls-7" d="M1880.56,830.47c0,1.05-.85,1.91-1.91,1.91s-1.91-.85-1.91-1.91,.85-1.91,1.91-1.91,1.91,.85,1.91,1.91Z"/><path class="cls-7" d="M1896.71,798.19c0,1.05-.85,1.91-1.91,1.91s-1.91-.85-1.91-1.91,.85-1.91,1.91-1.91,1.91,.85,1.91,1.91Z"/><circle class="cls-7" cx="1862.51" cy="798.19" r="1.91"/><circle class="cls-7" cx="1910.94" cy="765.9" r="1.91"/><path class="cls-7" d="M1880.56,765.9c0,1.05-.85,1.91-1.91,1.91s-1.91-.85-1.91-1.91,.85-1.91,1.91-1.91,1.91,.85,1.91,1.91Z"/></g><g class="cls-43"><circle class="cls-7" cx="1910.94" cy="895.05" r="1.91"/><path class="cls-7" d="M1880.56,895.05c0,1.05-.85,1.91-1.91,1.91s-1.91-.85-1.91-1.91,.85-1.91,1.91-1.91,1.91,.85,1.91,1.91Z"/><path class="cls-7" d="M1896.71,862.76c0,1.05-.85,1.91-1.91,1.91s-1.91-.85-1.91-1.91,.85-1.91,1.91-1.91,1.91,.85,1.91,1.91Z"/><circle class="cls-7" cx="1862.51" cy="862.76" r="1.91"/><circle class="cls-7" cx="1910.94" cy="830.47" r="1.91"/><path class="cls-7" d="M1880.56,830.47c0,1.05-.85,1.91-1.91,1.91s-1.91-.85-1.91-1.91,.85-1.91,1.91-1.91,1.91,.85,1.91,1.91Z"/></g><g class="cls-58"><circle class="cls-7" cx="1910.94" cy="959.63" r="1.91"/><path class="cls-7" d="M1880.56,959.63c0,1.05-.85,1.91-1.91,1.91s-1.91-.85-1.91-1.91,.85-1.91,1.91-1.91,1.91,.85,1.91,1.91Z"/><path class="cls-7" d="M1896.71,927.34c0,1.05-.85,1.91-1.91,1.91s-1.91-.85-1.91-1.91,.85-1.91,1.91-1.91,1.91,.85,1.91,1.91Z"/><circle class="cls-7" cx="1862.51" cy="927.34" r="1.91"/><circle class="cls-7" cx="1910.94" cy="895.05" r="1.91"/><path class="cls-7" d="M1880.56,895.05c0,1.05-.85,1.91-1.91,1.91s-1.91-.85-1.91-1.91,.85-1.91,1.91-1.91,1.91,.85,1.91,1.91Z"/></g><g class="cls-5"><circle class="cls-7" cx="1910.94" cy="1024.2" r="1.91"/><path class="cls-7" d="M1880.56,1024.2c0,1.05-.85,1.91-1.91,1.91s-1.91-.85-1.91-1.91,.85-1.91,1.91-1.91,1.91,.85,1.91,1.91Z"/><path class="cls-7" d="M1896.71,991.91c0,1.05-.85,1.91-1.91,1.91s-1.91-.85-1.91-1.91,.85-1.91,1.91-1.91,1.91,.85,1.91,1.91Z"/><circle class="cls-7" cx="1862.51" cy="991.91" r="1.91"/><circle class="cls-7" cx="1910.94" cy="959.63" r="1.91"/><path class="cls-7" d="M1880.56,959.63c0,1.05-.85,1.91-1.91,1.91s-1.91-.85-1.91-1.91,.85-1.91,1.91-1.91,1.91,.85,1.91,1.91Z"/></g><g class="cls-39"><path class="cls-7" d="M1896.71,1056.49c0,1.05-.85,1.91-1.91,1.91s-1.91-.85-1.91-1.91,.85-1.91,1.91-1.91,1.91,.85,1.91,1.91Z"/><circle class="cls-7" cx="1862.51" cy="1056.49" r="1.91"/><circle class="cls-7" cx="1910.94" cy="1024.2" r="1.91"/><path class="cls-7" d="M1880.56,1024.2c0,1.05-.85,1.91-1.91,1.91s-1.91-.85-1.91-1.91,.85-1.91,1.91-1.91,1.91,.85,1.91,1.91Z"/></g><g class="cls-20"><circle class="cls-7" cx="1846.37" cy="572.17" r="1.91"/><circle class="cls-7" cx="1814.08" cy="572.17" r="1.91"/><circle class="cls-7" cx="1862.51" cy="539.88" r="1.91"/><circle class="cls-7" cx="1830.22" cy="539.88" r="1.91"/><path class="cls-7" d="M1799.84,539.88c0,1.05-.85,1.91-1.91,1.91s-1.91-.85-1.91-1.91,.85-1.91,1.91-1.91,1.91,.85,1.91,1.91Z"/><circle class="cls-7" cx="1846.37" cy="507.6" r="1.91"/><circle class="cls-7" cx="1814.08" cy="507.6" r="1.91"/></g><g class="cls-54"><circle class="cls-7" cx="1846.37" cy="636.75" r="1.91"/><circle class="cls-7" cx="1814.08" cy="636.75" r="1.91"/><circle class="cls-7" cx="1862.51" cy="604.46" r="1.91"/><circle class="cls-7" cx="1830.22" cy="604.46" r="1.91"/><path class="cls-7" d="M1799.84,604.46c0,1.05-.85,1.91-1.91,1.91s-1.91-.85-1.91-1.91,.85-1.91,1.91-1.91,1.91,.85,1.91,1.91Z"/><circle class="cls-7" cx="1846.37" cy="572.17" r="1.91"/><circle class="cls-7" cx="1814.08" cy="572.17" r="1.91"/></g><g class="cls-25"><circle class="cls-7" cx="1846.37" cy="701.32" r="1.91"/><circle class="cls-7" cx="1814.08" cy="701.32" r="1.91"/><circle class="cls-7" cx="1862.51" cy="669.04" r="1.91"/><circle class="cls-7" cx="1830.22" cy="669.04" r="1.91"/><path class="cls-7" d="M1799.84,669.04c0,1.05-.85,1.91-1.91,1.91s-1.91-.85-1.91-1.91,.85-1.91,1.91-1.91,1.91,.85,1.91,1.91Z"/><circle class="cls-7" cx="1846.37" cy="636.75" r="1.91"/><circle class="cls-7" cx="1814.08" cy="636.75" r="1.91"/></g><g class="cls-6"><circle class="cls-7" cx="1846.37" cy="765.9" r="1.91"/><circle class="cls-7" cx="1814.08" cy="765.9" r="1.91"/><circle class="cls-7" cx="1862.51" cy="733.61" r="1.91"/><circle class="cls-7" cx="1830.22" cy="733.61" r="1.91"/><path class="cls-7" d="M1799.84,733.61c0,1.05-.85,1.91-1.91,1.91s-1.91-.85-1.91-1.91,.85-1.91,1.91-1.91,1.91,.85,1.91,1.91Z"/><circle class="cls-7" cx="1846.37" cy="701.32" r="1.91"/><circle class="cls-7" cx="1814.08" cy="701.32" r="1.91"/></g><g class="cls-55"><circle class="cls-7" cx="1846.37" cy="830.47" r="1.91"/><circle class="cls-7" cx="1814.08" cy="830.47" r="1.91"/><circle class="cls-7" cx="1862.51" cy="798.19" r="1.91"/><circle class="cls-7" cx="1830.22" cy="798.19" r="1.91"/><path class="cls-7" d="M1799.84,798.19c0,1.05-.85,1.91-1.91,1.91s-1.91-.85-1.91-1.91,.85-1.91,1.91-1.91,1.91,.85,1.91,1.91Z"/><circle class="cls-7" cx="1846.37" cy="765.9" r="1.91"/><circle class="cls-7" cx="1814.08" cy="765.9" r="1.91"/></g><g class="cls-53"><circle class="cls-7" cx="1846.37" cy="895.05" r="1.91"/><circle class="cls-7" cx="1814.08" cy="895.05" r="1.91"/><circle class="cls-7" cx="1862.51" cy="862.76" r="1.91"/><circle class="cls-7" cx="1830.22" cy="862.76" r="1.91"/><path class="cls-7" d="M1799.84,862.76c0,1.05-.85,1.91-1.91,1.91s-1.91-.85-1.91-1.91,.85-1.91,1.91-1.91,1.91,.85,1.91,1.91Z"/><circle class="cls-7" cx="1846.37" cy="830.47" r="1.91"/><circle class="cls-7" cx="1814.08" cy="830.47" r="1.91"/></g><g class="cls-47"><circle class="cls-7" cx="1846.37" cy="959.63" r="1.91"/><circle class="cls-7" cx="1814.08" cy="959.63" r="1.91"/><circle class="cls-7" cx="1862.51" cy="927.34" r="1.91"/><circle class="cls-7" cx="1830.22" cy="927.34" r="1.91"/><path class="cls-7" d="M1799.84,927.34c0,1.05-.85,1.91-1.91,1.91s-1.91-.85-1.91-1.91,.85-1.91,1.91-1.91,1.91,.85,1.91,1.91Z"/><circle class="cls-7" cx="1846.37" cy="895.05" r="1.91"/><circle class="cls-7" cx="1814.08" cy="895.05" r="1.91"/></g><g class="cls-4"><circle class="cls-7" cx="1846.37" cy="1024.2" r="1.91"/><circle class="cls-7" cx="1814.08" cy="1024.2" r="1.91"/><circle class="cls-7" cx="1862.51" cy="991.91" r="1.91"/><circle class="cls-7" cx="1830.22" cy="991.91" r="1.91"/><path class="cls-7" d="M1799.84,991.91c0,1.05-.85,1.91-1.91,1.91s-1.91-.85-1.91-1.91,.85-1.91,1.91-1.91,1.91,.85,1.91,1.91Z"/><circle class="cls-7" cx="1846.37" cy="959.63" r="1.91"/><circle class="cls-7" cx="1814.08" cy="959.63" r="1.91"/></g><g class="cls-31"><circle class="cls-7" cx="1862.51" cy="1056.49" r="1.91"/><circle class="cls-7" cx="1830.22" cy="1056.49" r="1.91"/><path class="cls-7" d="M1799.84,1056.49c0,1.05-.85,1.91-1.91,1.91s-1.91-.85-1.91-1.91,.85-1.91,1.91-1.91,1.91,.85,1.91,1.91Z"/><circle class="cls-7" cx="1846.37" cy="1024.2" r="1.91"/><circle class="cls-7" cx="1814.08" cy="1024.2" r="1.91"/></g><g class="cls-42"><circle class="cls-7" cx="1781.79" cy="572.17" r="1.91"/><circle class="cls-7" cx="1749.5" cy="572.17" r="1.91"/><path class="cls-7" d="M1799.84,539.88c0,1.05-.85,1.91-1.91,1.91s-1.91-.85-1.91-1.91,.85-1.91,1.91-1.91,1.91,.85,1.91,1.91Z"/><circle class="cls-7" cx="1765.65" cy="539.88" r="1.91"/><circle class="cls-7" cx="1733.36" cy="539.88" r="1.91"/><circle class="cls-7" cx="1781.79" cy="507.6" r="1.91"/><circle class="cls-7" cx="1749.5" cy="507.6" r="1.91"/></g><g class="cls-59"><circle class="cls-7" cx="1781.79" cy="636.75" r="1.91"/><circle class="cls-7" cx="1749.5" cy="636.75" r="1.91"/><path class="cls-7" d="M1799.84,604.46c0,1.05-.85,1.91-1.91,1.91s-1.91-.85-1.91-1.91,.85-1.91,1.91-1.91,1.91,.85,1.91,1.91Z"/><circle class="cls-7" cx="1765.65" cy="604.46" r="1.91"/><circle class="cls-7" cx="1733.36" cy="604.46" r="1.91"/><circle class="cls-7" cx="1781.79" cy="572.17" r="1.91"/><circle class="cls-7" cx="1749.5" cy="572.17" r="1.91"/></g><g class="cls-40"><circle class="cls-7" cx="1781.79" cy="701.32" r="1.91"/><circle class="cls-7" cx="1749.5" cy="701.32" r="1.91"/><path class="cls-7" d="M1799.84,669.04c0,1.05-.85,1.91-1.91,1.91s-1.91-.85-1.91-1.91,.85-1.91,1.91-1.91,1.91,.85,1.91,1.91Z"/><circle class="cls-7" cx="1765.65" cy="669.04" r="1.91"/><circle class="cls-7" cx="1733.36" cy="669.04" r="1.91"/><circle class="cls-7" cx="1781.79" cy="636.75" r="1.91"/><circle class="cls-7" cx="1749.5" cy="636.75" r="1.91"/></g><g class="cls-24"><circle class="cls-7" cx="1781.79" cy="765.9" r="1.91"/><circle class="cls-7" cx="1749.5" cy="765.9" r="1.91"/><path class="cls-7" d="M1799.84,733.61c0,1.05-.85,1.91-1.91,1.91s-1.91-.85-1.91-1.91,.85-1.91,1.91-1.91,1.91,.85,1.91,1.91Z"/><circle class="cls-7" cx="1765.65" cy="733.61" r="1.91"/><circle class="cls-7" cx="1733.36" cy="733.61" r="1.91"/><circle class="cls-7" cx="1781.79" cy="701.32" r="1.91"/><circle class="cls-7" cx="1749.5" cy="701.32" r="1.91"/></g><g class="cls-28"><circle class="cls-7" cx="1781.79" cy="830.47" r="1.91"/><circle class="cls-7" cx="1749.5" cy="830.47" r="1.91"/><path class="cls-7" d="M1799.84,798.19c0,1.05-.85,1.91-1.91,1.91s-1.91-.85-1.91-1.91,.85-1.91,1.91-1.91,1.91,.85,1.91,1.91Z"/><circle class="cls-7" cx="1765.65" cy="798.19" r="1.91"/><circle class="cls-7" cx="1733.36" cy="798.19" r="1.91"/><circle class="cls-7" cx="1781.79" cy="765.9" r="1.91"/><circle class="cls-7" cx="1749.5" cy="765.9" r="1.91"/></g><g class="cls-37"><circle class="cls-7" cx="1781.79" cy="895.05" r="1.91"/><circle class="cls-7" cx="1749.5" cy="895.05" r="1.91"/><path class="cls-7" d="M1799.84,862.76c0,1.05-.85,1.91-1.91,1.91s-1.91-.85-1.91-1.91,.85-1.91,1.91-1.91,1.91,.85,1.91,1.91Z"/><circle class="cls-7" cx="1765.65" cy="862.76" r="1.91"/><circle class="cls-7" cx="1733.36" cy="862.76" r="1.91"/><circle class="cls-7" cx="1781.79" cy="830.47" r="1.91"/><circle class="cls-7" cx="1749.5" cy="830.47" r="1.91"/></g><g class="cls-61"><circle class="cls-7" cx="1781.79" cy="959.63" r="1.91"/><circle class="cls-7" cx="1749.5" cy="959.63" r="1.91"/><path class="cls-7" d="M1799.84,927.34c0,1.05-.85,1.91-1.91,1.91s-1.91-.85-1.91-1.91,.85-1.91,1.91-1.91,1.91,.85,1.91,1.91Z"/><circle class="cls-7" cx="1765.65" cy="927.34" r="1.91"/><circle class="cls-7" cx="1733.36" cy="927.34" r="1.91"/><circle class="cls-7" cx="1781.79" cy="895.05" r="1.91"/><circle class="cls-7" cx="1749.5" cy="895.05" r="1.91"/></g><g class="cls-52"><circle class="cls-7" cx="1781.79" cy="1024.2" r="1.91"/><circle class="cls-7" cx="1749.5" cy="1024.2" r="1.91"/><path class="cls-7" d="M1799.84,991.91c0,1.05-.85,1.91-1.91,1.91s-1.91-.85-1.91-1.91,.85-1.91,1.91-1.91,1.91,.85,1.91,1.91Z"/><circle class="cls-7" cx="1765.65" cy="991.91" r="1.91"/><circle class="cls-7" cx="1733.36" cy="991.91" r="1.91"/><circle class="cls-7" cx="1781.79" cy="959.63" r="1.91"/><circle class="cls-7" cx="1749.5" cy="959.63" r="1.91"/></g><g class="cls-41"><path class="cls-7" d="M1799.84,1056.49c0,1.05-.85,1.91-1.91,1.91s-1.91-.85-1.91-1.91,.85-1.91,1.91-1.91,1.91,.85,1.91,1.91Z"/><circle class="cls-7" cx="1765.65" cy="1056.49" r="1.91"/><circle class="cls-7" cx="1733.36" cy="1056.49" r="1.91"/><circle class="cls-7" cx="1781.79" cy="1024.2" r="1.91"/><circle class="cls-7" cx="1749.5" cy="1024.2" r="1.91"/></g><g class="cls-48"><path class="cls-7" d="M1719.12,572.17c0,1.05-.85,1.91-1.91,1.91s-1.91-.85-1.91-1.91,.85-1.91,1.91-1.91,1.91,.85,1.91,1.91Z"/><circle class="cls-7" cx="1684.93" cy="572.17" r="1.91"/><circle class="cls-7" cx="1733.36" cy="539.88" r="1.91"/><circle class="cls-7" cx="1701.07" cy="539.88" r="1.91"/><circle class="cls-7" cx="1668.78" cy="539.88" r="1.91"/><path class="cls-7" d="M1719.12,507.6c0,1.05-.85,1.91-1.91,1.91s-1.91-.85-1.91-1.91,.85-1.91,1.91-1.91,1.91,.85,1.91,1.91Z"/><circle class="cls-7" cx="1684.93" cy="507.6" r="1.91"/></g><g class="cls-18"><path class="cls-7" d="M1719.12,636.75c0,1.05-.85,1.91-1.91,1.91s-1.91-.85-1.91-1.91,.85-1.91,1.91-1.91,1.91,.85,1.91,1.91Z"/><circle class="cls-7" cx="1684.93" cy="636.75" r="1.91"/><circle class="cls-7" cx="1733.36" cy="604.46" r="1.91"/><circle class="cls-7" cx="1701.07" cy="604.46" r="1.91"/><circle class="cls-7" cx="1668.78" cy="604.46" r="1.91"/><path class="cls-7" d="M1719.12,572.17c0,1.05-.85,1.91-1.91,1.91s-1.91-.85-1.91-1.91,.85-1.91,1.91-1.91,1.91,.85,1.91,1.91Z"/><circle class="cls-7" cx="1684.93" cy="572.17" r="1.91"/></g><g class="cls-15"><path class="cls-7" d="M1719.12,701.32c0,1.05-.85,1.91-1.91,1.91s-1.91-.85-1.91-1.91,.85-1.91,1.91-1.91,1.91,.85,1.91,1.91Z"/><circle class="cls-7" cx="1684.93" cy="701.32" r="1.91"/><circle class="cls-7" cx="1733.36" cy="669.04" r="1.91"/><circle class="cls-7" cx="1701.07" cy="669.04" r="1.91"/><circle class="cls-7" cx="1668.78" cy="669.04" r="1.91"/><path class="cls-7" d="M1719.12,636.75c0,1.05-.85,1.91-1.91,1.91s-1.91-.85-1.91-1.91,.85-1.91,1.91-1.91,1.91,.85,1.91,1.91Z"/><circle class="cls-7" cx="1684.93" cy="636.75" r="1.91"/></g><g class="cls-32"><path class="cls-7" d="M1719.12,765.9c0,1.05-.85,1.91-1.91,1.91s-1.91-.85-1.91-1.91,.85-1.91,1.91-1.91,1.91,.85,1.91,1.91Z"/><circle class="cls-7" cx="1684.93" cy="765.9" r="1.91"/><circle class="cls-7" cx="1733.36" cy="733.61" r="1.91"/><circle class="cls-7" cx="1701.07" cy="733.61" r="1.91"/><circle class="cls-7" cx="1668.78" cy="733.61" r="1.91"/><path class="cls-7" d="M1719.12,701.32c0,1.05-.85,1.91-1.91,1.91s-1.91-.85-1.91-1.91,.85-1.91,1.91-1.91,1.91,.85,1.91,1.91Z"/><circle class="cls-7" cx="1684.93" cy="701.32" r="1.91"/></g><g class="cls-62"><path class="cls-7" d="M1719.12,830.47c0,1.05-.85,1.91-1.91,1.91s-1.91-.85-1.91-1.91,.85-1.91,1.91-1.91,1.91,.85,1.91,1.91Z"/><circle class="cls-7" cx="1684.93" cy="830.47" r="1.91"/><circle class="cls-7" cx="1733.36" cy="798.19" r="1.91"/><circle class="cls-7" cx="1701.07" cy="798.19" r="1.91"/><circle class="cls-7" cx="1668.78" cy="798.19" r="1.91"/><path class="cls-7" d="M1719.12,765.9c0,1.05-.85,1.91-1.91,1.91s-1.91-.85-1.91-1.91,.85-1.91,1.91-1.91,1.91,.85,1.91,1.91Z"/><circle class="cls-7" cx="1684.93" cy="765.9" r="1.91"/></g><g class="cls-36"><path class="cls-7" d="M1719.12,895.05c0,1.05-.85,1.91-1.91,1.91s-1.91-.85-1.91-1.91,.85-1.91,1.91-1.91,1.91,.85,1.91,1.91Z"/><circle class="cls-7" cx="1684.93" cy="895.05" r="1.91"/><circle class="cls-7" cx="1733.36" cy="862.76" r="1.91"/><circle class="cls-7" cx="1701.07" cy="862.76" r="1.91"/><circle class="cls-7" cx="1668.78" cy="862.76" r="1.91"/><path class="cls-7" d="M1719.12,830.47c0,1.05-.85,1.91-1.91,1.91s-1.91-.85-1.91-1.91,.85-1.91,1.91-1.91,1.91,.85,1.91,1.91Z"/><circle class="cls-7" cx="1684.93" cy="830.47" r="1.91"/></g><g class="cls-22"><path class="cls-7" d="M1719.12,959.63c0,1.05-.85,1.91-1.91,1.91s-1.91-.85-1.91-1.91,.85-1.91,1.91-1.91,1.91,.85,1.91,1.91Z"/><circle class="cls-7" cx="1684.93" cy="959.63" r="1.91"/><circle class="cls-7" cx="1733.36" cy="927.34" r="1.91"/><circle class="cls-7" cx="1701.07" cy="927.34" r="1.91"/><circle class="cls-7" cx="1668.78" cy="927.34" r="1.91"/><path class="cls-7" d="M1719.12,895.05c0,1.05-.85,1.91-1.91,1.91s-1.91-.85-1.91-1.91,.85-1.91,1.91-1.91,1.91,.85,1.91,1.91Z"/><circle class="cls-7" cx="1684.93" cy="895.05" r="1.91"/></g><g class="cls-35"><path class="cls-7" d="M1719.12,1024.2c0,1.05-.85,1.91-1.91,1.91s-1.91-.85-1.91-1.91,.85-1.91,1.91-1.91,1.91,.85,1.91,1.91Z"/><circle class="cls-7" cx="1684.93" cy="1024.2" r="1.91"/><circle class="cls-7" cx="1733.36" cy="991.91" r="1.91"/><circle class="cls-7" cx="1701.07" cy="991.91" r="1.91"/><circle class="cls-7" cx="1668.78" cy="991.91" r="1.91"/><path class="cls-7" d="M1719.12,959.63c0,1.05-.85,1.91-1.91,1.91s-1.91-.85-1.91-1.91,.85-1.91,1.91-1.91,1.91,.85,1.91,1.91Z"/><circle class="cls-7" cx="1684.93" cy="959.63" r="1.91"/></g><g class="cls-46"><circle class="cls-7" cx="1733.36" cy="1056.49" r="1.91"/><circle class="cls-7" cx="1701.07" cy="1056.49" r="1.91"/><circle class="cls-7" cx="1668.78" cy="1056.49" r="1.91"/><path class="cls-7" d="M1719.12,1024.2c0,1.05-.85,1.91-1.91,1.91s-1.91-.85-1.91-1.91,.85-1.91,1.91-1.91,1.91,.85,1.91,1.91Z"/><circle class="cls-7" cx="1684.93" cy="1024.2" r="1.91"/></g><g class="cls-27"><circle class="cls-7" cx="1652.64" cy="572.17" r="1.91"/><circle class="cls-7" cx="1620.35" cy="572.17" r="1.91"/><circle class="cls-7" cx="1668.78" cy="539.88" r="1.91"/><path class="cls-7" d="M1638.4,539.88c0,1.05-.85,1.91-1.91,1.91s-1.91-.85-1.91-1.91,.85-1.91,1.91-1.91,1.91,.85,1.91,1.91Z"/><circle class="cls-7" cx="1604.21" cy="539.88" r="1.91"/><circle class="cls-7" cx="1652.64" cy="507.6" r="1.91"/><circle class="cls-7" cx="1620.35" cy="507.6" r="1.91"/></g><g class="cls-17"><circle class="cls-7" cx="1652.64" cy="636.75" r="1.91"/><circle class="cls-7" cx="1620.35" cy="636.75" r="1.91"/><circle class="cls-7" cx="1668.78" cy="604.46" r="1.91"/><path class="cls-7" d="M1638.4,604.46c0,1.05-.85,1.91-1.91,1.91s-1.91-.85-1.91-1.91,.85-1.91,1.91-1.91,1.91,.85,1.91,1.91Z"/><circle class="cls-7" cx="1604.21" cy="604.46" r="1.91"/><circle class="cls-7" cx="1652.64" cy="572.17" r="1.91"/><circle class="cls-7" cx="1620.35" cy="572.17" r="1.91"/></g><g class="cls-57"><circle class="cls-7" cx="1652.64" cy="701.32" r="1.91"/><circle class="cls-7" cx="1620.35" cy="701.32" r="1.91"/><circle class="cls-7" cx="1668.78" cy="669.04" r="1.91"/><path class="cls-7" d="M1638.4,669.04c0,1.05-.85,1.91-1.91,1.91s-1.91-.85-1.91-1.91,.85-1.91,1.91-1.91,1.91,.85,1.91,1.91Z"/><circle class="cls-7" cx="1604.21" cy="669.04" r="1.91"/><circle class="cls-7" cx="1652.64" cy="636.75" r="1.91"/><circle class="cls-7" cx="1620.35" cy="636.75" r="1.91"/></g><g class="cls-50"><circle class="cls-7" cx="1652.64" cy="765.9" r="1.91"/><circle class="cls-7" cx="1620.35" cy="765.9" r="1.91"/><circle class="cls-7" cx="1668.78" cy="733.61" r="1.91"/><path class="cls-7" d="M1638.4,733.61c0,1.05-.85,1.91-1.91,1.91s-1.91-.85-1.91-1.91,.85-1.91,1.91-1.91,1.91,.85,1.91,1.91Z"/><circle class="cls-7" cx="1604.21" cy="733.61" r="1.91"/><circle class="cls-7" cx="1652.64" cy="701.32" r="1.91"/><circle class="cls-7" cx="1620.35" cy="701.32" r="1.91"/></g><g class="cls-38"><circle class="cls-7" cx="1652.64" cy="830.47" r="1.91"/><circle class="cls-7" cx="1620.35" cy="830.47" r="1.91"/><circle class="cls-7" cx="1668.78" cy="798.19" r="1.91"/><path class="cls-7" d="M1638.4,798.19c0,1.05-.85,1.91-1.91,1.91s-1.91-.85-1.91-1.91,.85-1.91,1.91-1.91,1.91,.85,1.91,1.91Z"/><circle class="cls-7" cx="1604.21" cy="798.19" r="1.91"/><circle class="cls-7" cx="1652.64" cy="765.9" r="1.91"/><circle class="cls-7" cx="1620.35" cy="765.9" r="1.91"/></g><g class="cls-3"><circle class="cls-7" cx="1652.64" cy="895.05" r="1.91"/><circle class="cls-7" cx="1620.35" cy="895.05" r="1.91"/><circle class="cls-7" cx="1668.78" cy="862.76" r="1.91"/><path class="cls-7" d="M1638.4,862.76c0,1.05-.85,1.91-1.91,1.91s-1.91-.85-1.91-1.91,.85-1.91,1.91-1.91,1.91,.85,1.91,1.91Z"/><circle class="cls-7" cx="1604.21" cy="862.76" r="1.91"/><circle class="cls-7" cx="1652.64" cy="830.47" r="1.91"/><circle class="cls-7" cx="1620.35" cy="830.47" r="1.91"/></g><g class="cls-23"><circle class="cls-7" cx="1652.64" cy="959.63" r="1.91"/><circle class="cls-7" cx="1620.35" cy="959.63" r="1.91"/><circle class="cls-7" cx="1668.78" cy="927.34" r="1.91"/><path class="cls-7" d="M1638.4,927.34c0,1.05-.85,1.91-1.91,1.91s-1.91-.85-1.91-1.91,.85-1.91,1.91-1.91,1.91,.85,1.91,1.91Z"/><circle class="cls-7" cx="1604.21" cy="927.34" r="1.91"/><circle class="cls-7" cx="1652.64" cy="895.05" r="1.91"/><circle class="cls-7" cx="1620.35" cy="895.05" r="1.91"/></g><g class="cls-16"><circle class="cls-7" cx="1652.64" cy="1024.2" r="1.91"/><circle class="cls-7" cx="1620.35" cy="1024.2" r="1.91"/><circle class="cls-7" cx="1668.78" cy="991.91" r="1.91"/><path class="cls-7" d="M1638.4,991.91c0,1.05-.85,1.91-1.91,1.91s-1.91-.85-1.91-1.91,.85-1.91,1.91-1.91,1.91,.85,1.91,1.91Z"/><circle class="cls-7" cx="1604.21" cy="991.91" r="1.91"/><circle class="cls-7" cx="1652.64" cy="959.63" r="1.91"/><circle class="cls-7" cx="1620.35" cy="959.63" r="1.91"/></g><g class="cls-45"><circle class="cls-7" cx="1668.78" cy="1056.49" r="1.91"/><path class="cls-7" d="M1638.4,1056.49c0,1.05-.85,1.91-1.91,1.91s-1.91-.85-1.91-1.91,.85-1.91,1.91-1.91,1.91,.85,1.91,1.91Z"/><circle class="cls-7" cx="1604.21" cy="1056.49" r="1.91"/><circle class="cls-7" cx="1652.64" cy="1024.2" r="1.91"/><circle class="cls-7" cx="1620.35" cy="1024.2" r="1.91"/></g></g><polygon class="cls-29" points="148.69 924.83 488.7 1130.82 -252.74 1143.9 148.69 924.83"/><g class="cls-60"><path class="cls-1" d="M-176.04,719.03c19.82,9.85,9.09,31.45,28.9,41.3,19.82,9.85,30.55-11.76,50.37-1.91,19.82,9.85,9.08,31.45,28.9,41.3,19.82,9.85,30.55-11.76,50.37-1.91,19.82,9.85,9.09,31.45,28.91,41.3,19.82,9.85,30.56-11.76,50.38-1.91,19.82,9.85,9.09,31.45,28.91,41.3,19.82,9.85,30.56-11.76,50.38-1.91,19.82,9.85,9.09,31.45,28.91,41.3,19.82,9.85,30.56-11.76,50.38-1.91,19.82,9.85,9.09,31.45,28.91,41.3,19.82,9.85,30.56-11.76,50.38-1.91,19.82,9.85,9.09,31.45,28.91,41.3,19.82,9.85,30.56-11.76,50.38-1.91,19.82,9.85,9.09,31.45,28.91,41.3,19.82,9.85,30.56-11.76,50.38-1.91,19.82,9.85,9.09,31.45,28.91,41.3,19.82,9.85,30.56-11.76,50.38-1.91,19.82,9.85,9.09,31.45,28.91,41.3,19.83,9.85,30.56-11.75,50.39-1.9,19.83,9.85,9.09,31.46,28.92,41.31"/><path class="cls-1" d="M-182.04,730.42c19.82,9.85,9.09,31.45,28.9,41.3,19.82,9.85,30.55-11.76,50.37-1.91,19.82,9.85,9.08,31.45,28.9,41.3,19.82,9.85,30.55-11.76,50.37-1.91,19.82,9.85,9.09,31.45,28.91,41.3,19.82,9.85,30.56-11.76,50.38-1.91,19.82,9.85,9.09,31.45,28.91,41.3,19.82,9.85,30.56-11.76,50.38-1.91,19.82,9.85,9.09,31.45,28.91,41.3,19.82,9.85,30.56-11.76,50.38-1.91,19.82,9.85,9.09,31.45,28.91,41.3,19.82,9.85,30.56-11.76,50.38-1.91s9.09,31.45,28.91,41.3,30.56-11.76,50.38-1.91c19.82,9.85,9.09,31.45,28.91,41.3,19.82,9.85,30.56-11.76,50.38-1.91,19.82,9.85,9.09,31.45,28.91,41.3,19.82,9.85,30.56-11.76,50.38-1.91,19.82,9.85,9.09,31.45,28.91,41.3,19.83,9.85,30.56-11.75,50.39-1.9,19.83,9.85,9.09,31.46,28.92,41.31"/><path class="cls-1" d="M-188.03,741.81c19.82,9.85,9.09,31.45,28.9,41.3,19.82,9.85,30.55-11.76,50.37-1.91,19.82,9.85,9.08,31.45,28.9,41.3s30.55-11.76,50.37-1.91c19.82,9.85,9.09,31.45,28.91,41.3,19.82,9.85,30.56-11.76,50.38-1.91,19.82,9.85,9.09,31.45,28.91,41.3,19.82,9.85,30.56-11.76,50.38-1.91,19.82,9.85,9.09,31.45,28.91,41.3,19.82,9.85,30.56-11.76,50.38-1.91,19.82,9.85,9.09,31.45,28.91,41.3,19.82,9.85,30.56-11.76,50.38-1.91,19.82,9.85,9.09,31.45,28.91,41.3,19.82,9.85,30.56-11.76,50.38-1.91,19.82,9.85,9.09,31.45,28.91,41.3,19.82,9.85,30.56-11.76,50.38-1.91,19.82,9.85,9.09,31.45,28.91,41.3,19.82,9.85,30.56-11.76,50.38-1.91,19.82,9.85,9.09,31.45,28.91,41.3,19.83,9.85,30.56-11.75,50.39-1.9,19.83,9.85,9.09,31.46,28.92,41.31"/><path class="cls-1" d="M-194.02,753.2c19.82,9.85,9.09,31.45,28.9,41.3,19.82,9.85,30.55-11.76,50.37-1.91,19.82,9.85,9.08,31.45,28.9,41.3s30.55-11.76,50.37-1.91c19.82,9.85,9.09,31.45,28.91,41.3,19.82,9.85,30.56-11.76,50.38-1.91,19.82,9.85,9.09,31.45,28.91,41.3,19.82,9.85,30.56-11.76,50.38-1.91,19.82,9.85,9.09,31.45,28.91,41.3,19.82,9.85,30.56-11.76,50.38-1.91,19.82,9.85,9.09,31.45,28.91,41.3,19.82,9.85,30.56-11.76,50.38-1.91,19.82,9.85,9.09,31.45,28.91,41.3,19.82,9.85,30.56-11.76,50.38-1.91,19.82,9.85,9.09,31.45,28.91,41.3,19.82,9.85,30.56-11.76,50.38-1.91,19.82,9.85,9.09,31.45,28.91,41.3,19.82,9.85,30.56-11.76,50.38-1.91,19.82,9.85,9.09,31.45,28.91,41.3,19.83,9.85,30.56-11.75,50.39-1.9,19.83,9.85,9.09,31.46,28.92,41.31"/><path class="cls-1" d="M-200.02,764.58c19.82,9.85,9.09,31.45,28.9,41.3,19.82,9.85,30.55-11.76,50.37-1.91,19.82,9.85,9.08,31.45,28.9,41.3s30.55-11.76,50.37-1.91c19.82,9.85,9.09,31.45,28.91,41.3,19.82,9.85,30.56-11.76,50.38-1.91s9.09,31.45,28.91,41.3c19.82,9.85,30.56-11.76,50.38-1.91,19.82,9.85,9.09,31.45,28.91,41.3,19.82,9.85,30.56-11.76,50.38-1.91,19.82,9.85,9.09,31.45,28.91,41.3,19.82,9.85,30.56-11.76,50.38-1.91,19.82,9.85,9.09,31.45,28.91,41.3,19.82,9.85,30.56-11.76,50.38-1.91,19.82,9.85,9.09,31.45,28.91,41.3,19.82,9.85,30.56-11.76,50.38-1.91,19.82,9.85,9.09,31.45,28.91,41.3,19.82,9.85,30.56-11.76,50.38-1.91,19.82,9.85,9.09,31.45,28.91,41.3s30.56-11.75,50.39-1.9c19.83,9.85,9.09,31.46,28.92,41.31"/><path class="cls-1" d="M-206.01,775.97c19.82,9.85,9.09,31.45,28.9,41.3,19.82,9.85,30.55-11.76,50.37-1.91,19.82,9.85,9.08,31.45,28.9,41.3,19.82,9.85,30.55-11.76,50.37-1.91,19.82,9.85,9.09,31.45,28.91,41.3,19.82,9.85,30.56-11.76,50.38-1.91,19.82,9.85,9.09,31.45,28.91,41.3,19.82,9.85,30.56-11.76,50.38-1.91,19.82,9.85,9.09,31.45,28.91,41.3,19.82,9.85,30.56-11.76,50.38-1.91,19.82,9.85,9.09,31.45,28.91,41.3,19.82,9.85,30.56-11.76,50.38-1.91,19.82,9.85,9.09,31.45,28.91,41.3,19.82,9.85,30.56-11.76,50.38-1.91,19.82,9.85,9.09,31.45,28.91,41.3,19.82,9.85,30.56-11.76,50.38-1.91,19.82,9.85,9.09,31.45,28.91,41.3,19.82,9.85,30.56-11.76,50.38-1.91,19.82,9.85,9.09,31.45,28.91,41.3,19.83,9.85,30.56-11.75,50.39-1.9,19.83,9.85,9.09,31.46,28.92,41.31"/><path class="cls-1" d="M-212.01,787.36c19.82,9.85,9.09,31.45,28.9,41.3,19.82,9.85,30.55-11.76,50.37-1.91,19.82,9.85,9.08,31.45,28.9,41.3,19.82,9.85,30.55-11.76,50.37-1.91,19.82,9.85,9.09,31.45,28.91,41.3,19.82,9.85,30.56-11.76,50.38-1.91,19.82,9.85,9.09,31.45,28.91,41.3,19.82,9.85,30.56-11.76,50.38-1.91,19.82,9.85,9.09,31.45,28.91,41.3,19.82,9.85,30.56-11.76,50.38-1.91,19.82,9.85,9.09,31.45,28.91,41.3,19.82,9.85,30.56-11.76,50.38-1.91s9.09,31.45,28.91,41.3c19.82,9.85,30.56-11.76,50.38-1.91,19.82,9.85,9.09,31.45,28.91,41.3,19.82,9.85,30.56-11.76,50.38-1.91,19.82,9.85,9.09,31.45,28.91,41.3,19.82,9.85,30.56-11.76,50.38-1.91,19.82,9.85,9.09,31.45,28.91,41.3,19.83,9.85,30.56-11.75,50.39-1.9,19.83,9.85,9.09,31.46,28.92,41.31"/><path class="cls-1" d="M-218,798.75c19.82,9.85,9.09,31.45,28.9,41.3,19.82,9.85,30.55-11.76,50.37-1.91,19.82,9.85,9.08,31.45,28.9,41.3,19.82,9.85,30.55-11.76,50.37-1.91,19.82,9.85,9.09,31.45,28.91,41.3,19.82,9.85,30.56-11.76,50.38-1.91,19.82,9.85,9.09,31.45,28.91,41.3,19.82,9.85,30.56-11.76,50.38-1.91s9.09,31.45,28.91,41.3c19.82,9.85,30.56-11.76,50.38-1.91,19.82,9.85,9.09,31.45,28.91,41.3,19.82,9.85,30.56-11.76,50.38-1.91,19.82,9.85,9.09,31.45,28.91,41.3,19.82,9.85,30.56-11.76,50.38-1.91,19.82,9.85,9.09,31.45,28.91,41.3,19.82,9.85,30.56-11.76,50.38-1.91,19.82,9.85,9.09,31.45,28.91,41.3,19.82,9.85,30.56-11.76,50.38-1.91,19.82,9.85,9.09,31.45,28.91,41.3,19.83,9.85,30.56-11.75,50.39-1.9,19.83,9.85,9.09,31.46,28.92,41.31"/><path class="cls-1" d="M-223.99,810.14c19.82,9.85,9.09,31.45,28.9,41.3,19.82,9.85,30.55-11.76,50.37-1.91,19.82,9.85,9.08,31.45,28.9,41.3,19.82,9.85,30.55-11.76,50.37-1.91,19.82,9.85,9.09,31.45,28.91,41.3,19.82,9.85,30.56-11.76,50.38-1.91,19.82,9.85,9.09,31.45,28.91,41.3,19.82,9.85,30.56-11.76,50.38-1.91,19.82,9.85,9.09,31.45,28.91,41.3,19.82,9.85,30.56-11.76,50.38-1.91,19.82,9.85,9.09,31.45,28.91,41.3,19.82,9.85,30.56-11.76,50.38-1.91,19.82,9.85,9.09,31.45,28.91,41.3,19.82,9.85,30.56-11.76,50.38-1.91s9.09,31.45,28.91,41.3c19.82,9.85,30.56-11.76,50.38-1.91,19.82,9.85,9.09,31.45,28.91,41.3,19.82,9.85,30.56-11.76,50.38-1.91s9.09,31.45,28.91,41.3c19.83,9.85,30.56-11.75,50.39-1.9,19.83,9.85,9.09,31.46,28.92,41.31"/><path class="cls-1" d="M-229.99,821.53c19.82,9.85,9.09,31.45,28.9,41.3,19.82,9.85,30.55-11.76,50.37-1.91s9.08,31.45,28.9,41.3c19.82,9.85,30.55-11.76,50.37-1.91,19.82,9.85,9.09,31.45,28.91,41.3,19.82,9.85,30.56-11.76,50.38-1.91,19.82,9.85,9.09,31.45,28.91,41.3,19.82,9.85,30.56-11.76,50.38-1.91,19.82,9.85,9.09,31.45,28.91,41.3,19.82,9.85,30.56-11.76,50.38-1.91,19.82,9.85,9.09,31.45,28.91,41.3,19.82,9.85,30.56-11.76,50.38-1.91s9.09,31.45,28.91,41.3c19.82,9.85,30.56-11.76,50.38-1.91,19.82,9.85,9.09,31.45,28.91,41.3,19.82,9.85,30.56-11.76,50.38-1.91,19.82,9.85,9.09,31.45,28.91,41.3,19.82,9.85,30.56-11.76,50.38-1.91,19.82,9.85,9.09,31.45,28.91,41.3,19.83,9.85,30.56-11.75,50.39-1.9,19.83,9.85,9.09,31.46,28.92,41.31"/><path class="cls-1" d="M-235.98,832.91c19.82,9.85,9.09,31.45,28.9,41.3,19.82,9.85,30.55-11.76,50.37-1.91,19.82,9.85,9.08,31.45,28.9,41.3s30.55-11.76,50.37-1.91c19.82,9.85,9.09,31.45,28.91,41.3,19.82,9.85,30.56-11.76,50.38-1.91s9.09,31.45,28.91,41.3c19.82,9.85,30.56-11.76,50.38-1.91,19.82,9.85,9.09,31.45,28.91,41.3,19.82,9.85,30.56-11.76,50.38-1.91,19.82,9.85,9.09,31.45,28.91,41.3,19.82,9.85,30.56-11.76,50.38-1.91s9.09,31.45,28.91,41.3c19.82,9.85,30.56-11.76,50.38-1.91s9.09,31.45,28.91,41.3c19.82,9.85,30.56-11.76,50.38-1.91,19.82,9.85,9.09,31.45,28.91,41.3,19.82,9.85,30.56-11.76,50.38-1.91,19.82,9.85,9.09,31.45,28.91,41.3s30.56-11.75,50.39-1.9c19.83,9.85,9.09,31.46,28.92,41.31"/><path class="cls-1" d="M-241.97,844.3c19.82,9.85,9.09,31.45,28.9,41.3,19.82,9.85,30.55-11.76,50.37-1.91,19.82,9.85,9.08,31.45,28.9,41.3,19.82,9.85,30.55-11.76,50.37-1.91,19.82,9.85,9.09,31.45,28.91,41.3,19.82,9.85,30.56-11.76,50.38-1.91,19.82,9.85,9.09,31.45,28.91,41.3,19.82,9.85,30.56-11.76,50.38-1.91,19.82,9.85,9.09,31.45,28.91,41.3,19.82,9.85,30.56-11.76,50.38-1.91,19.82,9.85,9.09,31.45,28.91,41.3,19.82,9.85,30.56-11.76,50.38-1.91,19.82,9.85,9.09,31.45,28.91,41.3,19.82,9.85,30.56-11.76,50.38-1.91,19.82,9.85,9.09,31.45,28.91,41.3,19.82,9.85,30.56-11.76,50.38-1.91,19.82,9.85,9.09,31.45,28.91,41.3,19.82,9.85,30.56-11.76,50.38-1.91,19.82,9.85,9.09,31.45,28.91,41.3s30.56-11.75,50.39-1.9c19.83,9.85,9.09,31.46,28.92,41.31"/><path class="cls-1" d="M-247.97,855.69c19.82,9.85,9.09,31.45,28.9,41.3,19.82,9.85,30.55-11.76,50.37-1.91,19.82,9.85,9.08,31.45,28.9,41.3,19.82,9.85,30.55-11.76,50.37-1.91,19.82,9.85,9.09,31.45,28.91,41.3,19.82,9.85,30.56-11.76,50.38-1.91s9.09,31.45,28.91,41.3c19.82,9.85,30.56-11.76,50.38-1.91,19.82,9.85,9.09,31.45,28.91,41.3,19.82,9.85,30.56-11.76,50.38-1.91,19.82,9.85,9.09,31.45,28.91,41.3,19.82,9.85,30.56-11.76,50.38-1.91,19.82,9.85,9.09,31.45,28.91,41.3,19.82,9.85,30.56-11.76,50.38-1.91,19.82,9.85,9.09,31.45,28.91,41.3,19.82,9.85,30.56-11.76,50.38-1.91,19.82,9.85,9.09,31.45,28.91,41.3,19.82,9.85,30.56-11.76,50.38-1.91,19.82,9.85,9.09,31.45,28.91,41.3,19.83,9.85,30.56-11.75,50.39-1.9,19.83,9.85,9.09,31.46,28.92,41.31"/><path class="cls-1" d="M-253.96,867.08c19.82,9.85,9.09,31.45,28.9,41.3,19.82,9.85,30.55-11.76,50.37-1.91,19.82,9.85,9.08,31.45,28.9,41.3,19.82,9.85,30.55-11.76,50.37-1.91,19.82,9.85,9.09,31.45,28.91,41.3,19.82,9.85,30.56-11.76,50.38-1.91,19.82,9.85,9.09,31.45,28.91,41.3,19.82,9.85,30.56-11.76,50.38-1.91,19.82,9.85,9.09,31.45,28.91,41.3,19.82,9.85,30.56-11.76,50.38-1.91,19.82,9.85,9.09,31.45,28.91,41.3,19.82,9.85,30.56-11.76,50.38-1.91,19.82,9.85,9.09,31.45,28.91,41.3,19.82,9.85,30.56-11.76,50.38-1.91,19.82,9.85,9.09,31.45,28.91,41.3,19.82,9.85,30.56-11.76,50.38-1.91,19.82,9.85,9.09,31.45,28.91,41.3,19.82,9.85,30.56-11.76,50.38-1.91,19.82,9.85,9.09,31.45,28.91,41.3,19.83,9.85,30.56-11.75,50.39-1.9,19.83,9.85,9.09,31.46,28.92,41.31"/><path class="cls-1" d="M-259.96,878.47c19.82,9.85,9.09,31.45,28.9,41.3,19.82,9.85,30.55-11.76,50.37-1.91,19.82,9.85,9.08,31.45,28.9,41.3,19.82,9.85,30.55-11.76,50.37-1.91,19.82,9.85,9.09,31.45,28.91,41.3,19.82,9.85,30.56-11.76,50.38-1.91,19.82,9.85,9.09,31.45,28.91,41.3,19.82,9.85,30.56-11.76,50.38-1.91,19.82,9.85,9.09,31.45,28.91,41.3,19.82,9.85,30.56-11.76,50.38-1.91,19.82,9.85,9.09,31.45,28.91,41.3,19.82,9.85,30.56-11.76,50.38-1.91,19.82,9.85,9.09,31.45,28.91,41.3,19.82,9.85,30.56-11.76,50.38-1.91,19.82,9.85,9.09,31.45,28.91,41.3,19.82,9.85,30.56-11.76,50.38-1.91,19.82,9.85,9.09,31.45,28.91,41.3,19.82,9.85,30.56-11.76,50.38-1.91,19.82,9.85,9.09,31.45,28.91,41.3,19.83,9.85,30.56-11.75,50.39-1.9,19.83,9.85,9.09,31.46,28.92,41.31"/><path class="cls-1" d="M-265.95,889.85c19.82,9.85,9.09,31.45,28.9,41.3,19.82,9.85,30.55-11.76,50.37-1.91,19.82,9.85,9.08,31.45,28.9,41.3,19.82,9.85,30.55-11.76,50.37-1.91,19.82,9.85,9.09,31.45,28.91,41.3,19.82,9.85,30.56-11.76,50.38-1.91,19.82,9.85,9.09,31.45,28.91,41.3,19.82,9.85,30.56-11.76,50.38-1.91,19.82,9.85,9.09,31.45,28.91,41.3,19.82,9.85,30.56-11.76,50.38-1.91,19.82,9.85,9.09,31.45,28.91,41.3,19.82,9.85,30.56-11.76,50.38-1.91,19.82,9.85,9.09,31.45,28.91,41.3,19.82,9.85,30.56-11.76,50.38-1.91,19.82,9.85,9.09,31.45,28.91,41.3,19.82,9.85,30.56-11.76,50.38-1.91,19.82,9.85,9.09,31.45,28.91,41.3,19.82,9.85,30.56-11.76,50.38-1.91,19.82,9.85,9.09,31.45,28.91,41.3,19.83,9.85,30.56-11.75,50.39-1.9,19.83,9.85,9.09,31.46,28.92,41.31"/><path class="cls-1" d="M-271.94,901.24c19.82,9.85,9.09,31.45,28.9,41.3,19.82,9.85,30.55-11.76,50.37-1.91,19.82,9.85,9.08,31.45,28.9,41.3,19.82,9.85,30.55-11.76,50.37-1.91,19.82,9.85,9.09,31.45,28.91,41.3,19.82,9.85,30.56-11.76,50.38-1.91,19.82,9.85,9.09,31.45,28.91,41.3,19.82,9.85,30.56-11.76,50.38-1.91,19.82,9.85,9.09,31.45,28.91,41.3,19.82,9.85,30.56-11.76,50.38-1.91,19.82,9.85,9.09,31.45,28.91,41.3,19.82,9.85,30.56-11.76,50.38-1.91,19.82,9.85,9.09,31.45,28.91,41.3,19.82,9.85,30.56-11.76,50.38-1.91,19.82,9.85,9.09,31.45,28.91,41.3,19.82,9.85,30.56-11.76,50.38-1.91,19.82,9.85,9.09,31.45,28.91,41.3,19.82,9.85,30.56-11.76,50.38-1.91,19.82,9.85,9.09,31.45,28.91,41.3,19.83,9.85,30.56-11.75,50.39-1.9,19.83,9.85,9.09,31.46,28.92,41.31"/><path class="cls-1" d="M-277.94,912.63c19.82,9.85,9.09,31.45,28.9,41.3,19.82,9.85,30.55-11.76,50.37-1.91,19.82,9.85,9.08,31.45,28.9,41.3,19.82,9.85,30.55-11.76,50.37-1.91,19.82,9.85,9.09,31.45,28.91,41.3,19.82,9.85,30.56-11.76,50.38-1.91,19.82,9.85,9.09,31.45,28.91,41.3,19.82,9.85,30.56-11.76,50.38-1.91,19.82,9.85,9.09,31.45,28.91,41.3,19.82,9.85,30.56-11.76,50.38-1.91,19.82,9.85,9.09,31.45,28.91,41.3,19.82,9.85,30.56-11.76,50.38-1.91,19.82,9.85,9.09,31.45,28.91,41.3,19.82,9.85,30.56-11.76,50.38-1.91,19.82,9.85,9.09,31.45,28.91,41.3,19.82,9.85,30.56-11.76,50.38-1.91,19.82,9.85,9.09,31.45,28.91,41.3,19.82,9.85,30.56-11.76,50.38-1.91,19.82,9.85,9.09,31.45,28.91,41.3,19.83,9.85,30.56-11.75,50.39-1.9,19.83,9.85,9.09,31.46,28.92,41.31"/><path class="cls-1" d="M-283.93,924.02c19.82,9.85,9.09,31.45,28.9,41.3,19.82,9.85,30.55-11.76,50.37-1.91,19.82,9.85,9.08,31.45,28.9,41.3,19.82,9.85,30.55-11.76,50.37-1.91,19.82,9.85,9.09,31.45,28.91,41.3,19.82,9.85,30.56-11.76,50.38-1.91s9.09,31.45,28.91,41.3c19.82,9.85,30.56-11.76,50.38-1.91,19.82,9.85,9.09,31.45,28.91,41.3,19.82,9.85,30.56-11.76,50.38-1.91,19.82,9.85,9.09,31.45,28.91,41.3,19.82,9.85,30.56-11.76,50.38-1.91,19.82,9.85,9.09,31.45,28.91,41.3,19.82,9.85,30.56-11.76,50.38-1.91,19.82,9.85,9.09,31.45,28.91,41.3,19.82,9.85,30.56-11.76,50.38-1.91,19.82,9.85,9.09,31.45,28.91,41.3,19.82,9.85,30.56-11.76,50.38-1.91,19.82,9.85,9.09,31.45,28.91,41.3,19.83,9.85,30.56-11.75,50.39-1.9,19.83,9.85,9.09,31.46,28.92,41.31"/><path class="cls-1" d="M-289.93,935.41c19.82,9.85,9.09,31.45,28.9,41.3s30.55-11.76,50.37-1.91c19.82,9.85,9.08,31.45,28.9,41.3,19.82,9.85,30.55-11.76,50.37-1.91,19.82,9.85,9.09,31.45,28.91,41.3,19.82,9.85,30.56-11.76,50.38-1.91,19.82,9.85,9.09,31.45,28.91,41.3,19.82,9.85,30.56-11.76,50.38-1.91,19.82,9.85,9.09,31.45,28.91,41.3,19.82,9.85,30.56-11.76,50.38-1.91,19.82,9.85,9.09,31.45,28.91,41.3,19.82,9.85,30.56-11.76,50.38-1.91s9.09,31.45,28.91,41.3c19.82,9.85,30.56-11.76,50.38-1.91,19.82,9.85,9.09,31.45,28.91,41.3,19.82,9.85,30.56-11.76,50.38-1.91,19.82,9.85,9.09,31.45,28.91,41.3,19.82,9.85,30.56-11.76,50.38-1.91s9.09,31.45,28.91,41.3c19.83,9.85,30.56-11.75,50.39-1.9,19.83,9.85,9.09,31.46,28.92,41.31"/><path class="cls-1" d="M-295.92,946.8c19.82,9.85,9.09,31.45,28.9,41.3,19.82,9.85,30.55-11.76,50.37-1.91,19.82,9.85,9.08,31.45,28.9,41.3,19.82,9.85,30.55-11.76,50.37-1.91,19.82,9.85,9.09,31.45,28.91,41.3,19.82,9.85,30.56-11.76,50.38-1.91s9.09,31.45,28.91,41.3c19.82,9.85,30.56-11.76,50.38-1.91,19.82,9.85,9.09,31.45,28.91,41.3,19.82,9.85,30.56-11.76,50.38-1.91,19.82,9.85,9.09,31.45,28.91,41.3,19.82,9.85,30.56-11.76,50.38-1.91,19.82,9.85,9.09,31.45,28.91,41.3,19.82,9.85,30.56-11.76,50.38-1.91,19.82,9.85,9.09,31.45,28.91,41.3,19.82,9.85,30.56-11.76,50.38-1.91,19.82,9.85,9.09,31.45,28.91,41.3,19.82,9.85,30.56-11.76,50.38-1.91,19.82,9.85,9.09,31.45,28.91,41.3,19.83,9.85,30.56-11.75,50.39-1.9,19.83,9.85,9.09,31.46,28.92,41.31"/><path class="cls-1" d="M-301.91,958.18c19.82,9.85,9.09,31.45,28.9,41.3,19.82,9.85,30.55-11.76,50.37-1.91,19.82,9.85,9.08,31.45,28.9,41.3,19.82,9.85,30.55-11.76,50.37-1.91,19.82,9.85,9.09,31.45,28.91,41.3,19.82,9.85,30.56-11.76,50.38-1.91,19.82,9.85,9.09,31.45,28.91,41.3,19.82,9.85,30.56-11.76,50.38-1.91,19.82,9.85,9.09,31.45,28.91,41.3,19.82,9.85,30.56-11.76,50.38-1.91,19.82,9.85,9.09,31.45,28.91,41.3,19.82,9.85,30.56-11.76,50.38-1.91,19.82,9.85,9.09,31.45,28.91,41.3,19.82,9.85,30.56-11.76,50.38-1.91,19.82,9.85,9.09,31.45,28.91,41.3,19.82,9.85,30.56-11.76,50.38-1.91,19.82,9.85,9.09,31.45,28.91,41.3,19.82,9.85,30.56-11.76,50.38-1.91,19.82,9.85,9.09,31.45,28.91,41.3,19.83,9.85,30.56-11.75,50.39-1.9,19.83,9.85,9.09,31.46,28.92,41.31"/><path class="cls-1" d="M-307.91,969.57c19.82,9.85,9.09,31.45,28.9,41.3,19.82,9.85,30.55-11.76,50.37-1.91,19.82,9.85,9.08,31.45,28.9,41.3,19.82,9.85,30.55-11.76,50.37-1.91,19.82,9.85,9.09,31.45,28.91,41.3,19.82,9.85,30.56-11.76,50.38-1.91,19.82,9.85,9.09,31.45,28.91,41.3,19.82,9.85,30.56-11.76,50.38-1.91,19.82,9.85,9.09,31.45,28.91,41.3,19.82,9.85,30.56-11.76,50.38-1.91,19.82,9.85,9.09,31.45,28.91,41.3,19.82,9.85,30.56-11.76,50.38-1.91,19.82,9.85,9.09,31.45,28.91,41.3,19.82,9.85,30.56-11.76,50.38-1.91,19.82,9.85,9.09,31.45,28.91,41.3,19.82,9.85,30.56-11.76,50.38-1.91,19.82,9.85,9.09,31.45,28.91,41.3,19.82,9.85,30.56-11.76,50.38-1.91,19.82,9.85,9.09,31.45,28.91,41.3,19.83,9.85,30.56-11.75,50.39-1.9,19.83,9.85,9.09,31.46,28.92,41.31"/><path class="cls-1" d="M-313.9,980.96c19.82,9.85,9.09,31.45,28.9,41.3,19.82,9.85,30.55-11.76,50.37-1.91,19.82,9.85,9.08,31.45,28.9,41.3,19.82,9.85,30.55-11.76,50.37-1.91,19.82,9.85,9.09,31.45,28.91,41.3,19.82,9.85,30.56-11.76,50.38-1.91,19.82,9.85,9.09,31.45,28.91,41.3,19.82,9.85,30.56-11.76,50.38-1.91,19.82,9.85,9.09,31.45,28.91,41.3,19.82,9.85,30.56-11.76,50.38-1.91,19.82,9.85,9.09,31.45,28.91,41.3,19.82,9.85,30.56-11.76,50.38-1.91,19.82,9.85,9.09,31.45,28.91,41.3,19.82,9.85,30.56-11.76,50.38-1.91,19.82,9.85,9.09,31.45,28.91,41.3,19.82,9.85,30.56-11.76,50.38-1.91,19.82,9.85,9.09,31.45,28.91,41.3,19.82,9.85,30.56-11.76,50.38-1.91,19.82,9.85,9.09,31.45,28.91,41.3,19.83,9.85,30.56-11.75,50.39-1.9,19.83,9.85,9.09,31.46,28.92,41.31"/><path class="cls-1" d="M-319.89,992.35c19.82,9.85,9.09,31.45,28.9,41.3,19.82,9.85,30.55-11.76,50.37-1.91,19.82,9.85,9.08,31.45,28.9,41.3,19.82,9.85,30.55-11.76,50.37-1.91,19.82,9.85,9.09,31.45,28.91,41.3,19.82,9.85,30.56-11.76,50.38-1.91,19.82,9.85,9.09,31.45,28.91,41.3,19.82,9.85,30.56-11.76,50.38-1.91,19.82,9.85,9.09,31.45,28.91,41.3,19.82,9.85,30.56-11.76,50.38-1.91,19.82,9.85,9.09,31.45,28.91,41.3,19.82,9.85,30.56-11.76,50.38-1.91,19.82,9.85,9.09,31.45,28.91,41.3,19.82,9.85,30.56-11.76,50.38-1.91,19.82,9.85,9.09,31.45,28.91,41.3,19.82,9.85,30.56-11.76,50.38-1.91,19.82,9.85,9.09,31.45,28.91,41.3,19.82,9.85,30.56-11.76,50.38-1.91,19.82,9.85,9.09,31.45,28.91,41.3,19.83,9.85,30.56-11.75,50.39-1.9,19.83,9.85,9.09,31.46,28.92,41.31"/><path class="cls-1" d="M-325.89,1003.74c19.82,9.85,9.09,31.45,28.9,41.3,19.82,9.85,30.55-11.76,50.37-1.91,19.82,9.85,9.08,31.45,28.9,41.3,19.82,9.85,30.55-11.76,50.37-1.91,19.82,9.85,9.09,31.45,28.91,41.3,19.82,9.85,30.56-11.76,50.38-1.91,19.82,9.85,9.09,31.45,28.91,41.3,19.82,9.85,30.56-11.76,50.38-1.91,19.82,9.85,9.09,31.45,28.91,41.3,19.82,9.85,30.56-11.76,50.38-1.91,19.82,9.85,9.09,31.45,28.91,41.3,19.82,9.85,30.56-11.76,50.38-1.91,19.82,9.85,9.09,31.45,28.91,41.3,19.82,9.85,30.56-11.76,50.38-1.91,19.82,9.85,9.09,31.45,28.91,41.3,19.82,9.85,30.56-11.76,50.38-1.91,19.82,9.85,9.09,31.45,28.91,41.3,19.82,9.85,30.56-11.76,50.38-1.91,19.82,9.85,9.09,31.45,28.91,41.3,19.83,9.85,30.56-11.75,50.39-1.9,19.83,9.85,9.09,31.46,28.92,41.31"/></g><g><polygon class="cls-7" points="-6.61 945.54 -10.82 960.08 5.91 964.92 10.21 950.05 -6.61 945.54"/><polygon class="cls-7" points="2.01 916.5 -2.02 930.42 29.16 939.44 17.95 978.17 36.26 968.08 47.33 929.83 2.01 916.5"/><polygon class="cls-7" points="5.85 901.57 10.15 886.71 84.42 908.21 72.83 948.26 55.41 957.85 66.63 919.11 5.85 901.57"/><polygon class="cls-7" points="92.29 937.53 99.38 913.04 123.73 920.08 92.29 937.53"/><polygon class="cls-7" points="-1.12 989.01 -5.67 991.52 -14.37 975.73 1.75 980.39 -1.12 989.01"/></g><g><polygon class="cls-21" points="1819.29 370.41 1829.2 374.12 1827.99 377.34 1821.29 374.83 1819.99 378.3 1815.57 380.3 1816.8 377.04 1819.29 370.41"/><polygon class="cls-21" points="1838.4 377.59 1848.3 381.3 1847.09 384.52 1840.4 382.01 1839.1 385.48 1834.68 387.48 1835.91 384.22 1838.4 377.59"/><polygon class="cls-21" points="1857.51 384.77 1867.41 388.49 1866.2 391.7 1859.51 389.2 1858.21 392.66 1853.78 394.67 1855.01 391.4 1857.51 384.77"/><polygon class="cls-21" points="1876.61 391.95 1886.52 395.67 1885.3 398.88 1878.61 396.38 1877.31 399.84 1872.89 401.85 1874.12 398.58 1876.61 391.95"/><polygon class="cls-21" points="1895.72 399.13 1905.62 402.85 1904.41 406.06 1897.72 403.56 1896.42 407.02 1891.99 409.03 1893.22 405.76 1895.72 399.13"/><polygon class="cls-21" points="1914.82 406.31 1924.73 410.03 1923.52 413.25 1916.82 410.74 1915.52 414.21 1911.1 416.21 1912.33 412.95 1914.82 406.31"/><polygon class="cls-21" points="1812.25 389.14 1822.16 392.86 1820.94 396.07 1814.25 393.57 1812.95 397.03 1808.53 399.04 1809.76 395.77 1812.25 389.14"/><polygon class="cls-21" points="1831.36 396.32 1841.26 400.04 1840.05 403.25 1833.36 400.75 1832.06 404.21 1827.63 406.22 1828.86 402.95 1831.36 396.32"/><polygon class="cls-21" points="1850.46 403.5 1860.37 407.22 1859.15 410.44 1852.46 407.93 1851.16 411.4 1846.74 413.4 1847.97 410.14 1850.46 403.5"/><polygon class="cls-21" points="1869.57 410.69 1879.47 414.4 1878.26 417.62 1871.57 415.11 1870.27 418.58 1865.85 420.58 1867.08 417.32 1869.57 410.69"/><polygon class="cls-21" points="1888.68 417.87 1898.58 421.58 1897.37 424.8 1890.67 422.3 1889.38 425.76 1884.95 427.77 1886.18 424.5 1888.68 417.87"/><polygon class="cls-21" points="1907.78 425.05 1917.68 428.77 1916.47 431.98 1909.78 429.48 1908.48 432.94 1904.06 434.95 1905.29 431.68 1907.78 425.05"/><polygon class="cls-21" points="1805.21 407.88 1815.11 411.59 1813.9 414.81 1807.21 412.3 1805.91 415.77 1801.49 417.77 1802.72 414.51 1805.21 407.88"/><polygon class="cls-21" points="1824.32 415.06 1834.22 418.77 1833.01 421.99 1826.31 419.49 1825.02 422.95 1820.59 424.96 1821.82 421.69 1824.32 415.06"/><polygon class="cls-21" points="1843.42 422.24 1853.32 425.96 1852.11 429.17 1845.42 426.67 1844.12 430.13 1839.7 432.14 1840.93 428.87 1843.42 422.24"/><polygon class="cls-21" points="1862.53 429.42 1872.43 433.14 1871.22 436.35 1864.53 433.85 1863.23 437.31 1858.8 439.32 1860.03 436.05 1862.53 429.42"/><polygon class="cls-21" points="1881.63 436.6 1891.54 440.32 1890.32 443.54 1883.63 441.03 1882.33 444.49 1877.91 446.5 1879.14 443.23 1881.63 436.6"/><polygon class="cls-21" points="1900.74 443.79 1910.64 447.5 1909.43 450.72 1902.74 448.21 1901.44 451.68 1897.01 453.68 1898.24 450.42 1900.74 443.79"/><polygon class="cls-21" points="1919.84 450.97 1929.75 454.68 1928.54 457.9 1921.84 455.39 1920.54 458.86 1916.12 460.87 1917.35 457.6 1919.84 450.97"/><polygon class="cls-21" points="1798.17 426.61 1808.07 430.33 1806.86 433.54 1800.17 431.04 1798.87 434.5 1794.44 436.51 1795.67 433.24 1798.17 426.61"/><polygon class="cls-21" points="1817.27 433.79 1827.18 437.51 1825.96 440.73 1819.27 438.22 1817.97 441.68 1813.55 443.69 1814.78 440.43 1817.27 433.79"/><polygon class="cls-21" points="1836.38 440.98 1846.28 444.69 1845.07 447.91 1838.38 445.4 1837.08 448.87 1832.65 450.87 1833.88 447.61 1836.38 440.98"/><polygon class="cls-21" points="1855.48 448.16 1865.39 451.87 1864.18 455.09 1857.48 452.58 1856.18 456.05 1851.76 458.06 1852.99 454.79 1855.48 448.16"/><polygon class="cls-21" points="1874.59 455.34 1884.49 459.06 1883.28 462.27 1876.59 459.77 1875.29 463.23 1870.87 465.24 1872.1 461.97 1874.59 455.34"/><polygon class="cls-21" points="1893.7 462.52 1903.6 466.24 1902.39 469.45 1895.69 466.95 1894.4 470.41 1889.97 472.42 1891.2 469.15 1893.7 462.52"/><polygon class="cls-21" points="1791.12 445.35 1801.03 449.06 1799.82 452.28 1793.12 449.77 1791.82 453.24 1787.4 455.25 1788.63 451.98 1791.12 445.35"/><polygon class="cls-21" points="1810.23 452.53 1820.13 456.25 1818.92 459.46 1812.23 456.96 1810.93 460.42 1806.51 462.43 1807.74 459.16 1810.23 452.53"/><polygon class="cls-21" points="1829.34 459.71 1839.24 463.43 1838.03 466.64 1831.33 464.14 1830.04 467.6 1825.61 469.61 1826.84 466.34 1829.34 459.71"/><polygon class="cls-21" points="1848.44 466.89 1858.34 470.61 1857.13 473.82 1850.44 471.32 1849.14 474.78 1844.72 476.79 1845.95 473.52 1848.44 466.89"/><polygon class="cls-21" points="1867.55 474.08 1877.45 477.79 1876.24 481.01 1869.55 478.5 1868.25 481.97 1863.82 483.97 1865.05 480.71 1867.55 474.08"/><polygon class="cls-21" points="1784.08 464.08 1793.98 467.8 1792.77 471.02 1786.08 468.51 1784.78 471.97 1780.36 473.98 1781.59 470.71 1784.08 464.08"/><polygon class="cls-21" points="1803.19 471.27 1813.09 474.98 1811.88 478.2 1805.19 475.69 1803.89 479.16 1799.46 481.16 1800.69 477.9 1803.19 471.27"/><polygon class="cls-21" points="1822.29 478.45 1832.2 482.16 1830.98 485.38 1824.29 482.87 1822.99 486.34 1818.57 488.34 1819.8 485.08 1822.29 478.45"/><polygon class="cls-21" points="1841.4 485.63 1851.3 489.35 1850.09 492.56 1843.4 490.06 1842.1 493.52 1837.67 495.53 1838.9 492.26 1841.4 485.63"/><polygon class="cls-21" points="1777.04 482.82 1786.94 486.54 1785.73 489.75 1779.04 487.25 1777.74 490.71 1773.31 492.72 1774.54 489.45 1777.04 482.82"/><polygon class="cls-21" points="1796.14 490 1806.05 493.72 1804.84 496.93 1798.14 494.43 1796.84 497.89 1792.42 499.9 1793.65 496.63 1796.14 490"/><polygon class="cls-21" points="1815.25 497.18 1825.15 500.9 1823.94 504.11 1817.25 501.61 1815.95 505.07 1811.53 507.08 1812.76 503.81 1815.25 497.18"/><polygon class="cls-21" points="1770 501.55 1779.9 505.27 1778.69 508.49 1771.99 505.98 1770.7 509.45 1766.27 511.45 1767.5 508.19 1770 501.55"/><polygon class="cls-21" points="1789.1 508.74 1799.01 512.45 1797.79 515.67 1791.1 513.16 1789.8 516.63 1785.38 518.63 1786.61 515.37 1789.1 508.74"/><polygon class="cls-21" points="1762.95 520.29 1772.86 524.01 1771.64 527.22 1764.95 524.72 1763.65 528.18 1759.23 530.19 1760.46 526.92 1762.95 520.29"/></g><g><polygon class="cls-14" points="1819.75 371.09 1829.65 374.81 1828.44 378.03 1821.75 375.52 1820.45 378.98 1816.03 380.99 1817.26 377.73 1819.75 371.09"/><polygon class="cls-14" points="1838.86 378.28 1848.76 381.99 1847.55 385.21 1840.86 382.7 1839.56 386.17 1835.13 388.17 1836.36 384.91 1838.86 378.28"/><polygon class="cls-14" points="1857.96 385.46 1867.87 389.17 1866.65 392.39 1859.96 389.88 1858.66 393.35 1854.24 395.36 1855.47 392.09 1857.96 385.46"/><polygon class="cls-14" points="1877.07 392.64 1886.97 396.36 1885.76 399.57 1879.07 397.07 1877.77 400.53 1873.34 402.54 1874.57 399.27 1877.07 392.64"/><polygon class="cls-14" points="1896.17 399.82 1906.08 403.54 1904.87 406.75 1898.17 404.25 1896.87 407.71 1892.45 409.72 1893.68 406.45 1896.17 399.82"/><polygon class="cls-14" points="1915.28 407 1925.18 410.72 1923.97 413.94 1917.28 411.43 1915.98 414.89 1911.56 416.9 1912.79 413.63 1915.28 407"/><polygon class="cls-14" points="1812.71 389.83 1822.61 393.55 1821.4 396.76 1814.71 394.26 1813.41 397.72 1808.98 399.73 1810.21 396.46 1812.71 389.83"/><polygon class="cls-14" points="1831.81 397.01 1841.72 400.73 1840.51 403.94 1833.81 401.44 1832.51 404.9 1828.09 406.91 1829.32 403.64 1831.81 397.01"/><polygon class="cls-14" points="1850.92 404.19 1860.82 407.91 1859.61 411.13 1852.92 408.62 1851.62 412.08 1847.2 414.09 1848.43 410.82 1850.92 404.19"/><polygon class="cls-14" points="1870.03 411.38 1879.93 415.09 1878.72 418.31 1872.02 415.8 1870.73 419.27 1866.3 421.27 1867.53 418.01 1870.03 411.38"/><polygon class="cls-14" points="1889.13 418.56 1899.03 422.27 1897.82 425.49 1891.13 422.98 1889.83 426.45 1885.41 428.45 1886.64 425.19 1889.13 418.56"/><polygon class="cls-14" points="1908.24 425.74 1918.14 429.46 1916.93 432.67 1910.24 430.17 1908.94 433.63 1904.51 435.64 1905.74 432.37 1908.24 425.74"/><polygon class="cls-14" points="1805.67 408.57 1815.57 412.28 1814.36 415.5 1807.66 412.99 1806.37 416.46 1801.94 418.46 1803.17 415.2 1805.67 408.57"/><polygon class="cls-14" points="1824.77 415.75 1834.67 419.46 1833.46 422.68 1826.77 420.17 1825.47 423.64 1821.05 425.64 1822.28 422.38 1824.77 415.75"/><polygon class="cls-14" points="1843.88 422.93 1853.78 426.65 1852.57 429.86 1845.88 427.36 1844.58 430.82 1840.15 432.83 1841.38 429.56 1843.88 422.93"/><polygon class="cls-14" points="1862.98 430.11 1872.89 433.83 1871.67 437.04 1864.98 434.54 1863.68 438 1859.26 440.01 1860.49 436.74 1862.98 430.11"/><polygon class="cls-14" points="1882.09 437.29 1891.99 441.01 1890.78 444.22 1884.09 441.72 1882.79 445.18 1878.36 447.19 1879.6 443.92 1882.09 437.29"/><polygon class="cls-14" points="1901.19 444.47 1911.1 448.19 1909.89 451.41 1903.19 448.9 1901.9 452.37 1897.47 454.37 1898.7 451.11 1901.19 444.47"/><polygon class="cls-14" points="1920.3 451.66 1930.2 455.37 1928.99 458.59 1922.3 456.08 1921 459.55 1916.58 461.55 1917.81 458.29 1920.3 451.66"/><polygon class="cls-14" points="1798.62 427.3 1808.53 431.02 1807.31 434.23 1800.62 431.73 1799.32 435.19 1794.9 437.2 1796.13 433.93 1798.62 427.3"/><polygon class="cls-14" points="1817.73 434.48 1827.63 438.2 1826.42 441.41 1819.73 438.91 1818.43 442.37 1814 444.38 1815.23 441.11 1817.73 434.48"/><polygon class="cls-14" points="1836.83 441.66 1846.74 445.38 1845.53 448.6 1838.83 446.09 1837.53 449.56 1833.11 451.56 1834.34 448.3 1836.83 441.66"/><polygon class="cls-14" points="1855.94 448.85 1865.84 452.56 1864.63 455.78 1857.94 453.27 1856.64 456.74 1852.22 458.74 1853.45 455.48 1855.94 448.85"/><polygon class="cls-14" points="1875.05 456.03 1884.95 459.74 1883.74 462.96 1877.05 460.46 1875.75 463.92 1871.32 465.93 1872.55 462.66 1875.05 456.03"/><polygon class="cls-14" points="1894.15 463.21 1904.06 466.93 1902.84 470.14 1896.15 467.64 1894.85 471.1 1890.43 473.11 1891.66 469.84 1894.15 463.21"/><polygon class="cls-14" points="1791.58 446.04 1801.48 449.75 1800.27 452.97 1793.58 450.46 1792.28 453.93 1787.86 455.93 1789.09 452.67 1791.58 446.04"/><polygon class="cls-14" points="1810.69 453.22 1820.59 456.93 1819.38 460.15 1812.69 457.65 1811.39 461.11 1806.96 463.12 1808.19 459.85 1810.69 453.22"/><polygon class="cls-14" points="1829.79 460.4 1839.7 464.12 1838.48 467.33 1831.79 464.83 1830.49 468.29 1826.07 470.3 1827.3 467.03 1829.79 460.4"/><polygon class="cls-14" points="1848.9 467.58 1858.8 471.3 1857.59 474.51 1850.9 472.01 1849.6 475.47 1845.17 477.48 1846.4 474.21 1848.9 467.58"/><polygon class="cls-14" points="1868 474.76 1877.91 478.48 1876.7 481.7 1870 479.19 1868.7 482.65 1864.28 484.66 1865.51 481.39 1868 474.76"/><polygon class="cls-14" points="1784.54 464.77 1794.44 468.49 1793.23 471.7 1786.54 469.2 1785.24 472.66 1780.81 474.67 1782.04 471.4 1784.54 464.77"/><polygon class="cls-14" points="1803.64 471.95 1813.55 475.67 1812.33 478.89 1805.64 476.38 1804.34 479.84 1799.92 481.85 1801.15 478.59 1803.64 471.95"/><polygon class="cls-14" points="1822.75 479.14 1832.65 482.85 1831.44 486.07 1824.75 483.56 1823.45 487.03 1819.03 489.03 1820.26 485.77 1822.75 479.14"/><polygon class="cls-14" points="1841.86 486.32 1851.76 490.03 1850.55 493.25 1843.85 490.74 1842.56 494.21 1838.13 496.22 1839.36 492.95 1841.86 486.32"/><polygon class="cls-14" points="1777.5 483.51 1787.4 487.22 1786.19 490.44 1779.49 487.93 1778.2 491.4 1773.77 493.41 1775 490.14 1777.5 483.51"/><polygon class="cls-14" points="1796.6 490.69 1806.5 494.41 1805.29 497.62 1798.6 495.12 1797.3 498.58 1792.88 500.59 1794.11 497.32 1796.6 490.69"/><polygon class="cls-14" points="1815.71 497.87 1825.61 501.59 1824.4 504.8 1817.71 502.3 1816.41 505.76 1811.98 507.77 1813.21 504.5 1815.71 497.87"/><polygon class="cls-14" points="1770.45 502.24 1780.36 505.96 1779.14 509.18 1772.45 506.67 1771.15 510.13 1766.73 512.14 1767.96 508.87 1770.45 502.24"/><polygon class="cls-14" points="1789.56 509.43 1799.46 513.14 1798.25 516.36 1791.56 513.85 1790.26 517.32 1785.83 519.32 1787.06 516.06 1789.56 509.43"/><polygon class="cls-14" points="1763.41 520.98 1773.31 524.7 1772.1 527.91 1765.41 525.41 1764.11 528.87 1759.69 530.88 1760.92 527.61 1763.41 520.98"/></g><g><polygon class="cls-7" points="1819.7 370.29 1829.6 374 1828.39 377.22 1821.7 374.71 1820.4 378.18 1815.97 380.19 1817.2 376.92 1819.7 370.29"/><polygon class="cls-7" points="1838.8 377.47 1848.71 381.19 1847.5 384.4 1840.8 381.9 1839.5 385.36 1835.08 387.37 1836.31 384.1 1838.8 377.47"/><polygon class="cls-7" points="1857.91 384.65 1867.81 388.37 1866.6 391.58 1859.91 389.08 1858.61 392.54 1854.19 394.55 1855.42 391.28 1857.91 384.65"/><polygon class="cls-7" points="1877.02 391.83 1886.92 395.55 1885.71 398.76 1879.01 396.26 1877.72 399.72 1873.29 401.73 1874.52 398.46 1877.02 391.83"/><polygon class="cls-7" points="1896.12 399.02 1906.02 402.73 1904.81 405.95 1898.12 403.44 1896.82 406.91 1892.4 408.91 1893.63 405.65 1896.12 399.02"/><polygon class="cls-7" points="1915.23 406.2 1925.13 409.91 1923.92 413.13 1917.23 410.62 1915.93 414.09 1911.5 416.09 1912.73 412.83 1915.23 406.2"/><polygon class="cls-7" points="1812.66 389.02 1822.56 392.74 1821.35 395.96 1814.65 393.45 1813.36 396.91 1808.93 398.92 1810.16 395.65 1812.66 389.02"/><polygon class="cls-7" points="1831.76 396.21 1841.66 399.92 1840.45 403.14 1833.76 400.63 1832.46 404.1 1828.04 406.1 1829.27 402.84 1831.76 396.21"/><polygon class="cls-7" points="1850.87 403.39 1860.77 407.1 1859.56 410.32 1852.87 407.81 1851.57 411.28 1847.14 413.28 1848.37 410.02 1850.87 403.39"/><polygon class="cls-7" points="1869.97 410.57 1879.88 414.29 1878.66 417.5 1871.97 415 1870.67 418.46 1866.25 420.47 1867.48 417.2 1869.97 410.57"/><polygon class="cls-7" points="1889.08 417.75 1898.98 421.47 1897.77 424.68 1891.08 422.18 1889.78 425.64 1885.35 427.65 1886.59 424.38 1889.08 417.75"/><polygon class="cls-7" points="1908.18 424.93 1918.09 428.65 1916.88 431.86 1910.18 429.36 1908.89 432.82 1904.46 434.83 1905.69 431.56 1908.18 424.93"/><polygon class="cls-7" points="1805.61 407.76 1815.52 411.48 1814.3 414.69 1807.61 412.19 1806.31 415.65 1801.89 417.66 1803.12 414.39 1805.61 407.76"/><polygon class="cls-7" points="1824.72 414.94 1834.62 418.66 1833.41 421.87 1826.72 419.37 1825.42 422.83 1820.99 424.84 1822.22 421.57 1824.72 414.94"/><polygon class="cls-7" points="1843.82 422.12 1853.73 425.84 1852.52 429.05 1845.82 426.55 1844.52 430.01 1840.1 432.02 1841.33 428.75 1843.82 422.12"/><polygon class="cls-7" points="1862.93 429.3 1872.83 433.02 1871.62 436.24 1864.93 433.73 1863.63 437.2 1859.21 439.2 1860.44 435.94 1862.93 429.3"/><polygon class="cls-7" points="1882.04 436.49 1891.94 440.2 1890.73 443.42 1884.04 440.91 1882.74 444.38 1878.31 446.38 1879.54 443.12 1882.04 436.49"/><polygon class="cls-7" points="1901.14 443.67 1911.05 447.38 1909.83 450.6 1903.14 448.1 1901.84 451.56 1897.42 453.57 1898.65 450.3 1901.14 443.67"/><polygon class="cls-7" points="1920.25 450.85 1930.15 454.57 1928.94 457.78 1922.25 455.28 1920.95 458.74 1916.52 460.75 1917.75 457.48 1920.25 450.85"/><polygon class="cls-7" points="1798.57 426.49 1808.47 430.21 1807.26 433.43 1800.57 430.92 1799.27 434.39 1794.85 436.39 1796.08 433.13 1798.57 426.49"/><polygon class="cls-7" points="1817.68 433.68 1827.58 437.39 1826.37 440.61 1819.68 438.1 1818.38 441.57 1813.95 443.57 1815.18 440.31 1817.68 433.68"/><polygon class="cls-7" points="1836.78 440.86 1846.69 444.57 1845.47 447.79 1838.78 445.29 1837.48 448.75 1833.06 450.76 1834.29 447.49 1836.78 440.86"/><polygon class="cls-7" points="1855.89 448.04 1865.79 451.76 1864.58 454.97 1857.89 452.47 1856.59 455.93 1852.16 457.94 1853.39 454.67 1855.89 448.04"/><polygon class="cls-7" points="1874.99 455.22 1884.9 458.94 1883.68 462.15 1876.99 459.65 1875.69 463.11 1871.27 465.12 1872.5 461.85 1874.99 455.22"/><polygon class="cls-7" points="1894.1 462.4 1904 466.12 1902.79 469.34 1896.1 466.83 1894.8 470.29 1890.38 472.3 1891.61 469.03 1894.1 462.4"/><polygon class="cls-7" points="1791.53 445.23 1801.43 448.95 1800.22 452.16 1793.53 449.66 1792.23 453.12 1787.8 455.13 1789.03 451.86 1791.53 445.23"/><polygon class="cls-7" points="1810.63 452.41 1820.54 456.13 1819.32 459.34 1812.63 456.84 1811.33 460.3 1806.91 462.31 1808.14 459.04 1810.63 452.41"/><polygon class="cls-7" points="1829.74 459.59 1839.64 463.31 1838.43 466.53 1831.74 464.02 1830.44 467.48 1826.02 469.49 1827.25 466.22 1829.74 459.59"/><polygon class="cls-7" points="1848.85 466.78 1858.75 470.49 1857.54 473.71 1850.84 471.2 1849.55 474.67 1845.12 476.67 1846.35 473.41 1848.85 466.78"/><polygon class="cls-7" points="1867.95 473.96 1877.85 477.67 1876.64 480.89 1869.95 478.38 1868.65 481.85 1864.23 483.85 1865.46 480.59 1867.95 473.96"/><polygon class="cls-7" points="1784.48 463.97 1794.39 467.68 1793.18 470.9 1786.48 468.39 1785.19 471.86 1780.76 473.86 1781.99 470.6 1784.48 463.97"/><polygon class="cls-7" points="1803.59 471.15 1813.49 474.86 1812.28 478.08 1805.59 475.57 1804.29 479.04 1799.87 481.05 1801.1 477.78 1803.59 471.15"/><polygon class="cls-7" points="1822.7 478.33 1832.6 482.05 1831.39 485.26 1824.7 482.76 1823.4 486.22 1818.97 488.23 1820.2 484.96 1822.7 478.33"/><polygon class="cls-7" points="1841.8 485.51 1851.71 489.23 1850.49 492.44 1843.8 489.94 1842.5 493.4 1838.08 495.41 1839.31 492.14 1841.8 485.51"/><polygon class="cls-7" points="1777.44 482.7 1787.35 486.42 1786.13 489.63 1779.44 487.13 1778.14 490.59 1773.72 492.6 1774.95 489.33 1777.44 482.7"/><polygon class="cls-7" points="1796.55 489.88 1806.45 493.6 1805.24 496.81 1798.55 494.31 1797.25 497.77 1792.82 499.78 1794.05 496.51 1796.55 489.88"/><polygon class="cls-7" points="1815.65 497.06 1825.56 500.78 1824.35 504 1817.65 501.49 1816.35 504.96 1811.93 506.96 1813.16 503.7 1815.65 497.06"/><polygon class="cls-7" points="1770.4 501.44 1780.3 505.15 1779.09 508.37 1772.4 505.86 1771.1 509.33 1766.68 511.33 1767.91 508.07 1770.4 501.44"/><polygon class="cls-7" points="1789.51 508.62 1799.41 512.33 1798.2 515.55 1791.5 513.05 1790.21 516.51 1785.78 518.52 1787.01 515.25 1789.51 508.62"/><polygon class="cls-7" points="1763.36 520.17 1773.26 523.89 1772.05 527.1 1765.36 524.6 1764.06 528.06 1759.63 530.07 1760.86 526.8 1763.36 520.17"/></g></g></svg>